<?xml version="1.0" encoding="utf-8"?>
<!-- Generator: Adobe Illustrator 19.0.0, SVG Export Plug-In . SVG Version: 6.00 Build 0)  -->
<svg version="1.1" id="Layer_1" xmlns="http://www.w3.org/2000/svg" xmlns:xlink="http://www.w3.org/1999/xlink" x="0px" y="0px"
	 viewBox="0 0 53.1 30.1" style="enable-background:new 0 0 53.1 30.1;" xml:space="preserve">
<style type="text/css">
	.st0{fill:#020202;}
</style>
<image style="display:none;overflow:visible;" width="66" height="40" xlink:href="F027676.jpg"  transform="matrix(1 0 0 1 -5.9797 -3.9311)">
</image>
<path class="st0" d="M52.7,18.9c-1.5,6.9-6.3,10.7-13.9,10.8C26,29.9,27.3,30.2,14.5,30c-6.7-0.1-12.7-4.7-14.1-9.6
	C-1.2,14.5,2,6.1,7.5,2.7c1.6-1,3.6-1.6,5.5-1.7c7-0.5,7.1-0.7,11-0.9c0-0.2,2.1,0.2,2.2,0C34.1,1.2,36.3-0.4,44,1.6
	C50.7,3.4,54.2,12.2,52.7,18.9L52.7,18.9z"/>
</svg>
