<?xml version="1.0" encoding="utf-8"?>
<!-- Generator: Adobe Illustrator 19.0.0, SVG Export Plug-In . SVG Version: 6.00 Build 0)  -->
<svg version="1.1" id="Layer_1" xmlns="http://www.w3.org/2000/svg" xmlns:xlink="http://www.w3.org/1999/xlink" x="0px" y="0px"
	 viewBox="0 0 510.2 322.9" style="enable-background:new 0 0 510.2 322.9;" xml:space="preserve">
<style type="text/css">
	.st0{fill-rule:evenodd;clip-rule:evenodd;}
</style>
<path class="st0" d="M0.8,56.1L0,30.1l0.8-16.3l3.3-8.1l8.1-2.4l17.1-1.6L48,0l15.5,0.8l23.6,0.8h28.5L361.3,0l61.8,1.6l26-1.6h19.5
	l12.2,1.6l9,0.8l5.7,0.8l8.1,2.4l4.1,4.9l1.6,45.5l0.8,58.6l-0.8,38.2v35l-0.8,38.2l0.8,40.7l-0.8,40.7l-0.8,7.3l-1.6,4.1l-4.9,2.4
	l-5.7,0.8l-179.8-0.8l-113.9,0.8h-86.2l-30.1-1.6l-16.3,1.6H55.3h-13H26l-8.9,0.8l-13.8-2.4l-1.6-8.9L0,304.2l0.8-171.6L0,88.6
	L0.8,56.1L0.8,56.1z"/>
</svg>
