<?xml version="1.0" encoding="utf-8"?>
<!-- Generator: Adobe Illustrator 19.0.0, SVG Export Plug-In . SVG Version: 6.00 Build 0)  -->
<svg version="1.1" id="Isolation_Mode" xmlns="http://www.w3.org/2000/svg" xmlns:xlink="http://www.w3.org/1999/xlink" x="0px"
	 y="0px" viewBox="0 0 231 268" style="enable-background:new 0 0 231 268;" xml:space="preserve">
<style type="text/css">
	.st0{fill:#FFFFFF;}
	.st1{fill:#999999;}
</style>
<path class="st0" d="M230.1,42.5c1.1,17,1,34,0.7,51c-0.6,35-1.5,70-2.3,105c-0.4,15.7,0.8,32.2-1.5,47.7c-1.2,8.5-4.4,16-12.9,18.9
	c-1,0.3-1.7,0-2.1-0.7c-32,3.5-65,3.1-97.2,3.3c-33,0.2-67.1,1.2-99.9-3c-0.4-0.1-0.8-0.3-1-0.5C-1.3,263-0.1,238.3,0.1,227
	c0.5-28.4,1.1-56.8,1.6-85.1c0.5-29,1.1-58.1,1.6-87.1C3.6,42.9,2.5,30,4.5,18.2c0.4-2,0.9-4,1.6-5.7C6,12.3,6.1,12,6.2,11.8
	c0.2-0.3,0.5-0.6,0.7-1c1.5-2.6,3.6-4.7,6.8-5.7c-0.5-1.4,0.2-3.3,2.1-3.3C56,1.5,96.2,1.1,136.4,0.7c18.2-0.2,36.3-0.4,54.5-0.5
	c10.5-0.1,23-1.6,30.6,7.3C229.4,16.5,229.3,31.2,230.1,42.5z"/>
<path class="st1" d="M224.8,150.7c0.8-37.2,3.2-74.8,0.3-111.9c-0.7-8.5-0.7-19.3-5.9-26.6c-6.5-9.2-18.5-7.4-28.3-7.3
	C171.4,5,152,5.2,132.5,5.4c-35,0.3-70,0.7-105.1,1c-3.4,0.3-6.6,0.8-9.9,2c-0.3,0.4-0.7,0.7-1.3,0.9c-10.9,2.3-7.8,24.1-8,32
	c-0.2,11-0.4,21.9-0.6,32.9C7.3,94.7,6.9,115.4,6.5,136c-0.4,21.3-0.8,42.6-1.2,63.8c-0.2,11-0.4,21.9-0.6,32.9
	c-0.2,10.4-0.7,28.3,14.3,28c0.8,0,1.3,0.5,1.4,1.1c31.4-0.7,63,1.5,94.4,1.3c33.3-0.2,66.6-3.1,99.9-3.2c0.2,0,0.3,0.1,0.5,0.1
	c8-5.1,7.7-17,7.9-25.3c0.2-8.9,0.4-17.8,0.6-26.8C224,188.9,224.4,169.8,224.8,150.7z"/>
</svg>
