<?xml version="1.0" encoding="utf-8"?>
<!-- Generator: Adobe Illustrator 19.0.0, SVG Export Plug-In . SVG Version: 6.00 Build 0)  -->
<svg version="1.1" id="Isolation_Mode" xmlns="http://www.w3.org/2000/svg" xmlns:xlink="http://www.w3.org/1999/xlink" x="0px"
	 y="0px" viewBox="-160.8 375 136 44" style="enable-background:new -160.8 375 136 44;" xml:space="preserve">
<style type="text/css">
	.st0{fill:#1A1A1A;}
</style>
<path class="st0" d="M-24.8,398.2c-0.1,3.5-0.2,7.1-0.4,10.7c-0.1,2.4-1.1,4.6-2,6.9c-0.6,1.5-2.2,2.1-4,2.4
	c-2.1,0.4-4.2,0.7-6.3,0.7c-5.6,0-11.1-0.2-16.7-0.4c-1.2,0-2.3-0.1-3.5-0.1c-6.4,0-12.8,0.1-19.2-0.1c-5.2-0.1-10.4-0.4-15.6-0.5
	c-2.4-0.1-4.9,0.2-7.2,0.2c-4.7,0.1-9.4,0.1-14.1,0.3c-2.5,0.1-5,0.1-7.4,0.1c-0.4,0-0.8,0.1-1.2,0c-7-0.4-14.1,0.3-21.2,0.3
	c-3.1,0-6.2,0.1-9.2-0.5c-0.8-0.1-1.6-0.3-2.4-0.5c-1.9-0.4-3-1.4-3.6-2.9c-1.2-3-1.9-6-1.9-9.2c-0.1-5.4-0.3-10.9-0.2-16.5
	c0-1.9,0.3-3.8,0.6-5.7c0.2-1.1,0.8-2.2,1.3-3.2c0.9-1.5,2.5-2.6,4.7-3s4.4-0.7,6.7-1c6.3-0.5,12.7-1.1,19.1-1.4
	c3.6-0.2,7.4-0.1,11.1,0c2.6,0.1,5.2,0.1,7.7,0.3c1.4,0.1,2.9,0.2,4.3,0.3c2,0.1,4.1,0.2,6.3,0.1c4-0.2,8.2-0.2,12.2,0
	c2.5,0.1,4.8-0.1,7.2-0.2c1.3-0.1,2.8-0.1,4.1-0.2c8.4-0.4,16.8-0.7,25.2,0.1c5.4,0.5,10.8,1,16.1,1.5c4.5,0.4,7.3,2.3,8.2,5.7
	c0.4,1.5,0.8,3.1,0.9,4.6c0.1,3.7,0.1,7.4,0.1,11C-24.9,398.2-24.9,398.2-24.8,398.2z"/>
</svg>
