<?xml version="1.0" encoding="utf-8"?>
<!-- Generator: Adobe Illustrator 19.0.0, SVG Export Plug-In . SVG Version: 6.00 Build 0)  -->
<svg version="1.1" id="Layer_1" xmlns="http://www.w3.org/2000/svg" xmlns:xlink="http://www.w3.org/1999/xlink" x="0px" y="0px"
	 viewBox="0 0 22.8 20.8" style="enable-background:new 0 0 22.8 20.8;" xml:space="preserve">
<style type="text/css">
	.st0{clip-path:url(#SVGID_3_);}
</style>
<g>
	
		<image style="display:none;overflow:visible;" width="23" height="22" xlink:href="B81A04A2.jpg"  transform="matrix(1 0 0 1 8.544922e-004 -0.7546)">
	</image>
	<g>
		<defs>
			<path id="SVGID_1_" d="M0,20.6C0,13.4,0,7.1,0,0c7.1,0,14.1,0,21.6,0c0.4,5.3,0.9,11.1,1.2,16.8c0.2,3-0.9,4.2-4.5,3.9
				C12.4,20.3,6.4,20.6,0,20.6L0,20.6z M16.5,3.4c-4.3,0-9,0-13.6,0C3,8.3,3,12.5,3,17c5.5,0,10.8,0,16.3,0
				c-0.2-3.4-0.4-6.5-0.7-10.7c-2,2.1-3.1,3.7-4.6,4.9c-1.5,1.1-3.5,2.7-5,2.4C6.4,13,5,8.3,6.5,4.3C7.8,6.7,8.7,8.4,9.5,10
				C12.5,7.2,14.7,5.1,16.5,3.4L16.5,3.4z"/>
		</defs>
		<defs>
			<rect id="SVGID_2_" x="0" y="-770.8" width="612" height="792"/>
		</defs>
		<use xlink:href="#SVGID_1_"  style="overflow:visible;"/>
		<clipPath id="SVGID_3_">
			<use xlink:href="#SVGID_1_"  style="overflow:visible;"/>
		</clipPath>
		<clipPath id="SVGID_4_" class="st0">
			<use xlink:href="#SVGID_2_"  style="display:none;overflow:visible;"/>
		</clipPath>
	</g>
</g>
</svg>
