<?xml version="1.0" encoding="utf-8"?>
<!-- Generator: Adobe Illustrator 19.0.0, SVG Export Plug-In . SVG Version: 6.00 Build 0)  -->
<svg version="1.1" id="Layer_1" xmlns="http://www.w3.org/2000/svg" xmlns:xlink="http://www.w3.org/1999/xlink" x="0px" y="0px"
	 viewBox="0 0 373.9 72.8" style="enable-background:new 0 0 373.9 72.8;" xml:space="preserve">
<style type="text/css">
	.st0{fill:#1789A3;}
</style>
<path class="st0" d="M360.3,2c-12.5-0.9-24.9-1.9-37.4-1.9C255.9-0.1,188.9,0,121.9,0c-22.1,0-44.3,0.1-66.4,0.5
	C40.9,0.8,26.2,1.4,11.6,2.4C3,3.1-0.2,7,0,15.5c0.5,16.1,1.3,32.3,2,48.4c0.2,4.9,2.5,7.9,7.6,8c12.6,0.2,25.3,0.5,37.9,0.5
	c46.3,0.1,92.6,0,138.9,0c0,0.1,0,0.2,0,0.4c53.3,0,106.6,0,159.9,0c5.2,0,10.3-0.1,15.4-0.6c8.9-1,11.3-3.7,11.5-13
	c0.3-14.2,0.5-28.3,0.6-42.5C374,6.7,370.3,2.7,360.3,2z M369.2,60.1c-0.2,7.6-2,9.8-9.3,10c-12.1,0.4-24.3,0.1-36.4,0.1
	c-45.5,0-91,0-136.4,0c0-0.1,0-0.2,0-0.3c-42.3,0-84.6-0.1-126.9,0c-13.5,0-27,0.7-40.5,0.8C6.7,70.7,6.4,70.6,5.5,58
	C4.5,43.5,4,29,3.5,14.6c-0.2-5.5,3.3-9.7,9-10c17.1-0.9,34.3-1.7,51.4-1.8c82-0.4,163.9-0.7,245.9-0.7c16.1,0,32.3,1.1,48.4,2.1
	c9.2,0.5,12,3.9,11.8,13C369.8,31.5,369.6,45.8,369.2,60.1z"/>
</svg>
