<?xml version="1.0" encoding="utf-8"?>
<!-- Generator: Adobe Illustrator 19.0.0, SVG Export Plug-In . SVG Version: 6.00 Build 0)  -->
<svg version="1.1" id="Layer_1" xmlns="http://www.w3.org/2000/svg" xmlns:xlink="http://www.w3.org/1999/xlink" x="0px" y="0px"
	 viewBox="0 0 615.9 41.6" style="enable-background:new 0 0 615.9 41.6;" xml:space="preserve">
<path d="M613.2,25.3c-1.2,4.1-1.3,8.7-12.8,11.4c-15.2,3.6-33.9,2.3-51.5,2.2c-15.7,0-345.9-0.1-362.2-0.1
	c-13.9,0-70.9-0.3-84.8-0.3l15.7-36.8c10.9,0.4,53.1,0,65.2-0.1c18.8-0.1,352-0.4,370.7-0.4c13.9,0,32.1,0.3,44.2,2.5
	c15.1,2.6,14.5,11.5,15.7,16.3C614.4,24.6,614.4,20.9,613.2,25.3L613.2,25.3z M612.5,31.5c-4,5.6-14.3,7.2-22.5,8
	c-12,1.3-24.2,0.7-36.3,0.5c-31.5-0.4-420.4-0.4-451.9-0.5c-2.2,0-2.1-2.3,0.1-2.3c24.1,0.1,405.6,0.3,429.7,0.4
	c11.5,0,22.9,0.1,34.4,0.3c11,0.1,22.5,0.2,33-2.2c11.3-2.6,13.2-9,13.5-16.4c0.2-4.6,0.2-8.7-5.8-11.8c-7.8-4.1-21-4.4-30.5-4.8
	c-10.7-0.5-21.4-0.5-32.2-0.4c-22.9,0.1-403.6,1.3-426.5,0.5c-2.2-0.1-2.1-2.4,0.1-2.3C141.3,1.3,522.9,0,546.7,0
	c12.4,0,24.8,0,37.1,0.9c8.2,0.6,18.4,1.3,25.1,4.9c5.1,2.8,5.6,11.7,6.3,15.8C616.4,27.3,616.3,26.2,612.5,31.5L612.5,31.5z
	 M128.4,38.8c124,0.5,426.7,1.7,433.3,1.7c-0.1,0,0.2,0,0.1,0C549.2,40.4,284.9,40.2,128.4,38.8L128.4,38.8z M76.7,38.6
	c9.2,0,18.3,0,27.5,0c7.7,0.1,15.8,0.2,24.2,0.2c-30.7-0.1-50.4-0.2-52-0.2C76.5,38.6,76.6,38.6,76.7,38.6L76.7,38.6z M2.6,24.8
	c-1.2-4.4-1.2-0.6,0.1-5.2C3.9,14.8,3.3,5.9,18.4,3.4c3.3-0.6,42.8-0.9,99.1-1.1l1,36.2c-4.8,0-9.5,0-14.3,0
	c-50.4-0.6-85.2-1.3-89-2.2C3.7,33.5,3.7,28.9,2.6,24.8L2.6,24.8z M81.2,1.4C63.3,1.1,529.5,2.6,557,2.7
	c-18.8-0.1-289-0.8-439.4-0.4l0-0.6C104.8,1.4,93.3,1.6,81.2,1.4L81.2,1.4z M557.7,2.7c0.2,0,0.4,0,0.5,0
	C558.1,2.7,558,2.7,557.7,2.7L557.7,2.7z M557,2.7c0.3,0,0.6,0,0.8,0c-0.2,0,0.1,0-0.2,0L557,2.7z M132,2.7c-4.9,0-9.8,0-14.5,0.1
	c0,0,0,0-0.1,0c-0.1,0-0.3,0-0.4,0C62.6,3,24.2,3.5,18.9,4.5C9.9,6,5.8,13.1,4.4,19.2c-1.4,6-2.6,6.2,2.4,11.7
	c6,6.6,23.3,6.7,33.2,6.9c2.7,0.1,34,0.2,80,0.3c0.3,0.7-0.2,1.5-1.6,1.5c-27.3-0.1,445.4,1.9,449.3,2c-0.1,0-0.5,0-1.1,0
	c-12.9,0-521-1-533.8-1.8c-9.1-0.5-21.1-1.4-27.5-6.5C0.6,29.6,0,22.8,0,18.1c0-4.2,0.4-7,4.2-10.7c4.7-4.5,15-5.6,22.4-6.3
	c2.9-0.3,39.4-0.4,91.8-0.4c1.1,0.5,0.9,1.8-0.5,2.1C120,2.7,124.9,2.7,132,2.7L132,2.7z M579.2,4C599.9,4.3,214.4,2.8,132,2.7
	C291.5,2.3,563.9,3.8,579.2,4L579.2,4z M118.6,37.4c24.6,0.1,447,1.9,451.5,2c-0.1,0-0.2,0-0.8,0c-8.6,0-303.3-0.8-449.2-1.2
	C119.9,37.7,119.4,37.4,118.6,37.4L118.6,37.4z M118.5,37.4C118.5,37.4,118.6,37.4,118.5,37.4C117.1,37.4,117,37.4,118.5,37.4
	L118.5,37.4z M555.7,1.5c-8.4,0-288-0.8-437.3-0.8c-0.2-0.1-0.5-0.2-0.9-0.2C86-0.1,587.3,1.6,555.7,1.5L555.7,1.5z"/>
</svg>
