<?xml version="1.0" encoding="utf-8"?>
<!-- Generator: Adobe Illustrator 19.0.0, SVG Export Plug-In . SVG Version: 6.00 Build 0)  -->
<svg version="1.1" id="Layer_1" xmlns="http://www.w3.org/2000/svg" xmlns:xlink="http://www.w3.org/1999/xlink" x="0px" y="0px"
	 viewBox="0 0 532.5 54.4" style="enable-background:new 0 0 532.5 54.4;" xml:space="preserve">
<style type="text/css">
	.st0{fill:#FFFFFF;}
</style>
<path class="st0" d="M84.7,51.6c-12.1-0.2-23.8-0.3-35.4-0.4c-13-0.2-26.9,1.1-38.1-3.1C2.7,45,2.7,40,1.9,35.6
	c-0.8-4.8-0.8-14.8,0.2-19.7c1-5.2,0.6-9.8,11.8-12.4c9-2.3,22.5-2.3,32.8-2.2c13.9,0.2,27.8,0.8,41.7,1.1c9,0.3,8.3,0.7,16.4,0.4
	l10.9,49C105.4,51.7,95.1,51.7,84.7,51.6L84.7,51.6z M115.7,53c-23.3-0.3-46.7-0.7-70-0.7c-8.9,0-18,0.5-26.9-1
	c-6-1-13.7-2.9-16.5-9c-2.7-5.8-2.7-18.7-1.8-24.8c0.7-4.4,1.1-9,4.9-11.9c5-3.8,12.6-4.5,18.7-5C33.3-0.2,42.5,0,51.7,0.1
	c17.7,0.3,35.5,2,53.1,1.5c1.6-0.1,1.6,2.4,0,2.5C87.8,4.6,70.7,3,53.7,2.7c-7.9-0.2-15.9-0.3-23.8,0.1C22.8,3.1,13,3.1,7.2,7.5
	c-4.5,3.3-4.6,16.8-4.6,21.7c0.1,8,1.4,14.9,9.7,17.9C20,49.9,28.6,50,36.7,50c8.5,0,17,0,25.5,0.1c17.8,0.2,35.7,0.3,53.5,0.5
	C117.3,50.6,117.3,53.1,115.7,53L115.7,53z M530.5,38.3c-1,4.4-1,9.3-9.6,12.2c-11.3,3.8-338.2,2.3-351.2,2.1
	c-11.7-0.1-23.3-0.3-35.4-0.4c-10.3-0.1-20.6-0.5-31-0.6l1.5-48.8c9.4-0.1,17.9,0.2,26.9,0.1c13.9,0,27.8-0.2,41.7-0.1
	c10.3,0.1,336.8,0.5,345.7,3c11.2,2.9,10.7,7.5,11.5,12.7C531.5,23.6,531.5,33.6,530.5,38.3L530.5,38.3z M532.5,31.1
	c-0.1,5.1-0.6,12.4-4.3,16.5c-4.8,5.3-13.8,6.2-20.5,6.6c-9.5,0.6-332.2-0.2-341.7-0.3c-20.9-0.3-41.8-0.7-62.7-1
	c-1.6,0-1.6-2.5,0-2.5c20.3,0.3,40.6,0.7,60.9,1c8.4,0.1,329.9,0.6,338.3,0.5c7.3-0.1,20.2-0.1,24.7-7.1c3.8-5.9,3-20.2,2.1-26.7
	c-0.9-6.6-3.9-9.2-10.5-11c-15.3-4.2-345.5-3.1-361.3-3c-17.6,0-35.2-0.2-52.8,0c-1.6,0-1.6-2.5,0-2.5c23.4-0.2,46.8-0.3,70.2,0.1
	c8.4,0.1,329.9,0.4,338.3,1.7c5.5,0.9,13,2.1,16.5,7.1C532.5,14.5,532.6,26.5,532.5,31.1L532.5,31.1z M506.6,52.8l-17-1l2-6h1l24,5
	L506.6,52.8L506.6,52.8z"/>
</svg>
