<?xml version="1.0" encoding="utf-8"?>
<!-- Generator: Adobe Illustrator 19.0.0, SVG Export Plug-In . SVG Version: 6.00 Build 0)  -->
<svg version="1.1" xmlns="http://www.w3.org/2000/svg" xmlns:xlink="http://www.w3.org/1999/xlink" x="0px" y="0px"
	 viewBox="0 0 1096.8 234.5" style="enable-background:new 0 0 1096.8 234.5;" xml:space="preserve">
	<path d="M167.6,233.9c-11.2-0.1-22.5-0.3-33.5-0.5c-9.1-0.2-18.6-0.3-27.9-0.4l-5.7-0.1c-16.7-0.2-34-0.4-51-0.4h-1.9
		c-1.6,0-3.3,0-4.9,0c-1.7,0-3.6,0-5.3,0c-5,0-11-0.1-16.9-1.1c-2.9-0.5-6.6-1.2-9.9-2.7c-3.9-1.7-6.6-4.2-8-7.3
		c-0.4-0.9-1.3-2.9-2-48.9C0.2,148.5,0,116.2,0,83.9c0-30.2,0.2-62,0.6-64.7l0.1-0.8C1.3,14.2,2,9.3,6.2,6
		c5.3-4.1,13.1-4.8,19.3-5.4l0.4,0C30.7,0.2,35.9,0,42.2,0c3.7,0,7.5,0.1,11.4,0.1c6.6,0.1,13.3,0.4,19.8,0.8
		c8.4,0.4,17,0.8,25.4,0.8c2.6,0,5.2,0,7.6-0.1c0,0,0,0,0,0c11.7-0.1,22.5-0.2,32.9-0.2c12.8,0,25.2,0.1,37.1,0.3
		c1.9,0,51.6,0.1,126.8,0.1C428.5,1.9,617.9,2,779.4,2.3c261.9,0.4,294.6,0.8,296.5,1.1c5.5,0.9,13.8,2.2,17.7,7.9
		c0.4,0.6,0.7,1.5,1.1,7.2c0,0.1,0.1,0.4,0.1,0.4l0.2,1.4c0.1,0.4,0.2,1.1,0.3,12v0c1.3,41.5,1.5,136.8,1.5,170.1c0,3.9,0,6.4,0,6.9
		c-0.1,5.4-0.7,13.2-4.8,17.8c-2.4,2.7-5.8,4.6-10.5,5.7c-3.9,1-7.9,1.3-11.3,1.5c-2.4,0.2-57.1,0.2-167,0.2
		C634,234.4,174,234,167.6,233.9"/>
</svg>
