<?xml version="1.0" encoding="utf-8"?>
<!-- Generator: Adobe Illustrator 19.0.0, SVG Export Plug-In . SVG Version: 6.00 Build 0)  -->
<svg version="1.1" id="Layer_1" xmlns="http://www.w3.org/2000/svg" xmlns:xlink="http://www.w3.org/1999/xlink" x="0px" y="0px"
	 viewBox="0 0 88.1 44.2" style="enable-background:new 0 0 88.1 44.2;" xml:space="preserve">
<path d="M45.1,44.2c-10.6,0-21.3,0-31.9,0C5,44.2,1,40.7,0.6,32.8c-0.4-6.6-0.7-13.3-0.6-20C0.1,4.6,4.1,1.3,12.2,1.3
	c10,0,19.9-0.4,29.9-0.6C53.7,0.5,65.3,0.1,77,0c6.2,0,9.6,3.5,10,9.8c0.4,6.8,1,13.6,1.1,20.4c0.1,2.8-0.8,5.6-1.4,8.3
	c-1,4.3-3.9,5.7-8.1,5.7C67.4,44.1,56.2,44.2,45.1,44.2C45.1,44.2,45.1,44.2,45.1,44.2z"/>
</svg>
