<?xml version="1.0" encoding="utf-8"?>
<!-- Generator: Adobe Illustrator 19.0.0, SVG Export Plug-In . SVG Version: 6.00 Build 0)  -->
<svg version="1.1" id="Layer_1" xmlns="http://www.w3.org/2000/svg" xmlns:xlink="http://www.w3.org/1999/xlink" x="0px" y="0px"
	 viewBox="0 0 467.6 567.3" style="enable-background:new 0 0 467.6 567.3;" xml:space="preserve">
<path d="M83.3,9.2c-1.7,0-2.7,0-3.4,0c-0.2,0-0.4-0.1-0.8-0.1C87.2,8.8,82.2,8.7,83.3,9.2L83.3,9.2z M79.9,9.1
	C82.2,9.5,76.3,9.2,79.9,9.1L79.9,9.1z M95.2,9.8c1.6-0.2-2.6-0.3-3.6-0.5l4.7-0.4C99.1,9.3,100.1,9.6,95.2,9.8L95.2,9.8z M98.3,8.2
	l2.4-0.2C99.4,8.3,98.8,8.3,98.3,8.2L98.3,8.2z M98.3,8.2l-5.2,0.4C95.4,8.3,96.4,8,96,8.3C97.6,7.6,97.7,8,98.3,8.2L98.3,8.2z
	 M90.3,8.4C81.3,8.5,80,7.7,89,7.5C84.3,7.9,87.6,8.1,90.3,8.4L90.3,8.4z M125.5,9.5c-0.2-0.4-3.6-0.5-5.4-0.7l3.5-0.3
	C124,8.8,125.8,9.2,125.5,9.5L125.5,9.5z M142.4,10.1l2.9-0.6l2.3-0.3L142.4,10.1L142.4,10.1z M159.1,10.6c2.3-0.3-2.9-0.6-0.7-1.1
	c4,0.4,7.1,0.5,10,0.2C165.7,10,162.7,10.5,159.1,10.6L159.1,10.6z M168.5,9.7c1.6-0.2,3.1-0.4,4.6-0.6C171.5,9.4,170,9.6,168.5,9.7
	L168.5,9.7z M137.1,8.2c0.2-0.1,0.3-0.1,0.5,0C137.4,8.2,137.3,8.2,137.1,8.2L137.1,8.2z M151.9,8.2c-0.1-0.1,0.2-0.1,0.5,0
	C152.3,8.2,152.1,8.2,151.9,8.2L151.9,8.2z M439.9,8.1c0,0,0.1-0.1,0.1-0.1c0.2,0,0.3,0.1,0.5,0.1L439.9,8.1L439.9,8.1z M152.9,8.4
	c0.1,0,0.2,0,0.4,0C153.6,8.5,153.7,8.6,152.9,8.4L152.9,8.4z M107.9,546.5l2.1,1.6C109.5,547.8,108.9,547.3,107.9,546.5
	L107.9,546.5z M129.3,565.4c-0.1,0-0.2,0.1-0.2,0.1c-0.9-0.9-0.6-0.7,0.3-0.1C129.5,565.3,129.4,565.4,129.3,565.4L129.3,565.4z
	 M456.8,284.4l-0.7,1.2c-0.7,0.5,0.2-3.8,0.8-7.6C456.7,279.7,456.6,281.8,456.8,284.4L456.8,284.4z M461.2,481.2
	c-0.2-1.3-0.3-12.6-0.5-13.7c0.2,0.8,0.4,11.6,0.7,12.6C461.4,480.5,461.3,480.8,461.2,481.2L461.2,481.2z M463.8,488.9l0.5-5
	C464.1,486.1,464,487.7,463.8,488.9L463.8,488.9z M27.7,526.3l3-0.7C30.4,526,32.5,526.3,27.7,526.3L27.7,526.3z M456.6,121.7
	c0-2.3,0.2-4.9,0.4-8.1C457.7,114.6,457,117.8,456.6,121.7L456.6,121.7z M118.7,546.2c0.1-0.2,0.7,0.2,1.9,1.2
	C120.8,547.7,120,547.2,118.7,546.2L118.7,546.2z M456.8,129.4c-0.1,0.6-0.1,1.2-0.2,1.7c-0.5-3.2-0.3-6.5,0-9.4
	C456.6,124.6,456.7,127,456.8,129.4L456.8,129.4z M0.9,144.1c0-0.5,0-0.9,0.1-0.8C1,143.5,1,143.8,0.9,144.1L0.9,144.1z M8.4,40.1
	c0-1.6,0-3.4-0.1-4.5C8.4,37.9,8.4,39.3,8.4,40.1L8.4,40.1z M456.5,39c-0.1-2.2-0.1-2.4,0.1-2.1C456.5,37.5,456.5,38.2,456.5,39
	L456.5,39z M456.5,45.6c0-1.7,0-2.7,0-3.4c0,0.1,0.1-0.1,0.1-0.5C456.5,42.9,456.5,44.2,456.5,45.6L456.5,45.6z M2.9,343.6
	c-0.2-1.9-0.2-3,0.1-0.5C2.9,343.3,2.9,343.5,2.9,343.6L2.9,343.6z M464.4,341.5c0-0.1,0-0.2,0-0.4
	C464.4,341.2,464.4,341.3,464.4,341.5L464.4,341.5L464.4,341.5z M465,350.2l-2.7-5.8l2.1-2.9C464.2,344.3,464.1,346.4,465,350.2
	L465,350.2z M465.1,181.6c0.3,2.9,0.6,5.1,0.5,7.4l0.9,0.1c-0.3,3.4,1.1,10.6-0.7,12.6c0.7,0.8-0.2,4.6,0,6.6l-0.7,0.5
	c-0.2,2.5,0,4,0.2,5.5c-1.4,5.1,0,9.7-0.1,14.2l-0.2,0l0.5,4.5c-0.6-1.2,0.4,0.9,0.2,2.2c0.3,1.4,0.1,3.7-0.3,5.4l0,2.9
	c-0.1-1-0.3-1.3-0.4-1.3c0.1,0.9,0.2,1.7,0.2,2.4c0.4,0.4,1,2.6,0.4,2.1c0.1-0.2,0-0.2-0.2-0.3c0.1,0.7,0.3,1.1,0.6,0.9l-0.1,5.2
	c0,0,0.1,0,0.1-0.1c0,0.1-0.1,0.2-0.1,0.3l-0.1,4.7l0.1,1.4c0-0.1-0.1-0.2-0.2-0.1l-0.1,3.9c0-0.8-0.1-2.4-0.2-3.7c0,0,0,0,0,0
	c0,0,0-0.1,0-0.1c-0.1-1.3-0.2-2.3-0.4-2.2c0,0.2-0.1,0.5-0.2,0.7c0,0.3,0,0.6,0,0.8c0.4,0.8-0.3,6,0.9,4.6
	c-1.2,1.9-0.1,1.3-1.1,2.5c0.1-0.9,0.1-1.8-0.1-2.7c-0.1,0.4-0.2,1.1-0.3,2.3c-0.3-1.8-0.7-4-1.1-6.3l-0.4,1.3
	c-0.9-0.9-0.4-2.6-0.1-4.1c-0.3-1.3-0.5-2.6-0.8-3.9c0,0.5-0.1,1.1-0.1,1.7c-0.1-0.4-0.1-0.7-0.3-0.6l0.2-1.8
	c-0.1-0.6-0.3-1.3-0.4-1.9c-0.3,0.1-0.6-1.1-0.8-1.9c0.1-0.3,0.1-0.7,0.1-1.1c-0.7-3.1-1.4-5.9-1.9-7.5l0.6,7.9l-0.6,2
	c0.4,4.9,1.4,9.5,2.4,13.3l0.1-1l0.7,0.8l-0.7,0.4c1.1,3.8,2.2,6.8,2.8,8.3c0,0,0,0,0,0c0,0.1,0,0.1,0,0.2c0,0.1,0,0.1,0.1,0.2
	c0,0,0,0.1,0,0.1c0.3,1.6,0.6,1.7,0.9,1.7c-0.4,0.6-0.9,1.2-1.5,1.6c-0.3,0.5-0.6,0.6-0.9,0.5c-0.4,0.1-0.8,0.1-1.1-0.1
	c0.1,10.3,2.8,10.6,2.6,21.8l0.4-4.4c0.1,1.4,0,4.8,0,7.5l0.3,1.5c-0.1-0.3-0.2-0.4-0.3-0.3c0,2,0,3.4,0.2,3
	c-0.1,0.6-0.3,1.2-0.6,1.7c0.1,0.3,0.2,0.7,0.3,1c-0.1-0.4-0.3-0.6-0.4-0.8c-0.5,1.1-1.1,1.6-1.4,0.4l1.8,9.9
	c-0.2-1.5-1.8-0.5-2.1-1.2c-0.1,4.2,1.9,7.1,2.1,4.5c-0.6,4.4-0.7,5.8-0.9,7.3c0-0.1,0.1-0.1,0.1-0.2c-0.2,1.4,0,3.5,0.2,5.6
	c0.3-0.6,0.5-1.3,0.6-1.9c0.4,5.4,0.2,8.6,0.1,11.2c-0.7-9-3.6-2.4-4.9-4.1l4.8,19.3c-0.3-0.7-1.8-2.2-2-2.1
	c1.4,1.6,1.6,23.7,1.4,34.5l0-1.6c-0.5-2.2-0.9,7.1-0.4,10.9c-0.3-0.6-0.2-1.5-0.2-3.2c-1.1,7.2,2.2,9.4,0.9,16.7
	c0.1-6.7-0.4-8-1-7.6c0.5,5.5,0,18.1,1.6,15.5c-0.4,3.5-0.1,6.7-1,6.4l1,13.4c-0.2-1-0.7-1.9-0.8,2.1c0.2-7.5-1.3-14.8-0.2-18.8
	c-1-0.2-1.6,2.6-2.5-1c0.5,14.5,2.3,22.5,3.5,31.7l-0.8,12.8l0.5,0.5l-1.2,2.2c0.3,1.6,0.5,12.6,0.4,13c-0.1,0.3-0.3-0.1-0.4-0.7
	c0.1,1.3,0.2,2.6,0.3,3.2c-0.6,0.5-1.4-1.8-2-4.2c0.2-1.2,0.4-12.3,0.7-13.5c-0.6-2.5-1.2-4.3-1.6-0.8c0.1,0.5,0.2,1.1,0.3,1.8
	c-0.4-1.6-0.8-2.6-1-1.4l0.6,19.8c0.2-1.1,0.5-2.8,0.9-4.7c0.8,6.1,1.7,13.1,2.6,7.7c0,0-0.2,21.9-0.4,23.7c0,0.5-0.1,0.9-0.1,1.4
	c0,0.4-0.1,1-0.1,1.5c-0.1,0.9-0.1,1.5-0.1,1.5c0.3,3.2,0.5,5.8,0.7,6.6c-2.9,0.2-4.9,0.3-7.6,0.5c-0.3,0-0.7,0-1.1,0.1
	c-0.2,0-0.4,0-0.6,0c-0.1,0-0.3,0-0.4,0c-0.5,0-1.1,0.1-1.7,0.1c-1.3,0.1-2.8,0.2-4.8,0.4c-0.6-0.4,2.3-0.8,0.3-1.1
	c-7.8,1.3-19-1.6-20.7-0.4c-6.3,0.3-2.6,1-6.6,1.4c0.2-0.1,0.6-0.4-0.6-0.4L175.4,525c-1.9-0.3,4.4-0.6-1-1
	c-9.1,0.6-14.5,1.1-22.2,0.7c-10.9,0.2,4.7,1.7-4.5,1.5c-1.4-0.7-2.5-1.5-8.3-1.6c-1.5,0.2-2.2,0.5-3.1,0.7
	c-0.2,0.1-0.5,0.1-0.8,0.2c-0.1,0.1-0.2,0.1-0.3,0.2c-0.2,0.1-0.4,0.2-0.6,0.3c0,0-0.1-0.3-0.3-0.5c-0.1-0.3-0.2-0.5-0.2-0.5
	c-0.4,0-0.7,0-1.1,0c0,1.3,0,2-0.6,2c0,0.1,0.1,0.2,0.1,0.3c0,0.1,0,0.4,0.1,0.6c0,0.4,0.1,0.9,0.1,1.3c0.1,0.8,0.1,1.6,0.1,2.3
	c0,1.4,0,2.6-0.1,3.6c0.6,7.2,2.2-5.3,2.6-7c-0.8,7.1-0.3,12-1.6,16.1l-0.3-6.3c-0.2,1.7-0.3,3.1-0.3,4.4c0,0.6,0,1.2,0,1.8
	c0,0.6,0,1.2,0,1.7c0,3.1,0.2,5.4,0.3,7.4c0.1,2,0.2,3.7,0.2,5.3c-0.1,1.6-0.3,3.3-0.9,4.7c0-3.5-0.1-7.7-0.3-10.3
	c-0.2-2.6-0.5-3.7-0.8-1.9l0.6,10.2c-0.3,0.6-0.2-5.8-0.5-1.9c0.2,2,0.5,5.4,0.7,8c-1.2-0.9-2.2-1.5-2.9-1.9l0.1,0l-12.9-11.4
	c0.2,0.1,0.3,0.3,0.5,0.4c0.4,0.3,0.7,0.5,0.8,0.5c0.2,0.1-0.2-0.5-1.5-1.7c0,0-0.1-0.1-0.4-0.3c-0.2-0.1-0.4-0.3-0.7-0.6
	c-0.6-0.5-1.4-1.1-2.1-1.7c-1.6-1.2-3.1-2.4-3.1-2.4c2,1.4,0.4-0.5-2.1-3c-7.3-7-7.7-3.6-12.8-9.7c0.8,0.8,1.1,0.8,1.9,1.6l-2.7-3.1
	c-0.6,0.3-2.4-0.9-4.6-2.7c-1.1-0.9-2.4-2-3.6-3.1c-0.6-0.6-1.3-1.1-1.9-1.7c-0.1-0.1-0.3-0.2-0.4-0.3c-0.1,0-0.2,0-0.3,0l-0.1,0
	c0,0,0,0-0.2,0c-0.3,0-0.6,0-0.8,0c-1.1,0-2.1,0.1-3,0.2c-1.7,0.2-2.9,0.5-3.1,0.9c-5.8-0.9-0.4-0.5,7-1.6L77,525c1.2,0,2.4,0,3.6,0
	c0.6,0,1.2,0,1.8,0l0.5,0l0.2,0l0.1,0l0,0c0.1,0,0.2,0,0.4-0.1l-0.3-0.1c-0.1,0-0.1,0-0.2,0l-0.4,0c-0.5,0-1-0.1-1.5-0.1
	c-1-0.1-2-0.1-2.9-0.1c-1.9,0-3.8,0.1-5.5,0.2c-3.4,0.3-6.4,0.7-8.6,1c-3.1-0.3,2.4-1.7-6.4-1.3c-12.4,0.4,2.3,1.7-5.1,1.9l-5.4-1.2
	c-9.5,0.9-5.2,0.1-13.2-0.1c-1.8,0.1-2.7,0.2-3.1,0.3c-4.3-0.3-8.7,0-12.9,0.3c-2.1,0.2-4.1,0.3-6.1,0.4c-0.3,0-0.6,0-0.9,0
	c-0.4,0-0.9,0-1.3,0c-0.9,0-1.7,0-2.5,0c-1.6,0-3.2,0-4.6-0.1c1.6-0.1-0.3-0.3-2.4-0.5c0.2-2.2,0.4-4.6,0.5-5.2c0,0,0-1.2-0.1-3
	c0-0.9-0.1-2-0.1-3.1c0-0.7-0.1-1.4-0.1-2.1C0.2,509.3,0,486.4,0,486.4c0.3,5.1,1,24.9,1.7,25.9c-0.1-3.6-0.4-25.3-0.5-27.8
	c0.2,1.5,0.5,3,0.8,1.1l-1.1-22.2c-0.1,0.7-0.2,2.1-0.2,3.3c0-3-0.4-9.6,0.1-14c0.3,0.4,0.5,1.9,0.8,2.3c-0.7,3.7-0.1,5.7,0.4,7.6
	c-0.1-8.4,0.2-2.1,0.7-6.1c0-5.9-0.9-8.4-1.5-6.8c0.3-6.7,0.4-8.8-0.2-15.7l0.9,1.3l-0.3-6.3l1.1,5.1c0.6-12.1-1.6-2.2-1.1-15.6
	l0.8,0c-0.3-5.2-1.7-6.9-0.7-10.9c-0.5-5-1.1,8.6-1.3-3.2c0.4-2.1,0.7-6.5,0.9-9.9c-0.3-3.4-0.9,1.7-0.9,4.5
	C0,382.1,3.1,388.4,2,372.8c-0.6,5.4-1.6-4.5-1.5,8.3C0,375,1.7,369,0.8,362.6l1,4.2c0-2.3-0.4-4.9-0.5-6.1l0.8,0.5
	c-1.4-7.9,0.7-14.7-1.2-19.4c1.4,3.3-0.1-5.9,0.5-9c1,6.5,0,18.6,1.3,19.5c0.4-3-0.2-5.7,0.1-8.7c0.2,2,0.6,5,0.8,5.8
	c0.8-10-0.8-15.7-1.2-21.7l0.3,10.7c-1.3-0.9-0.2-4.8-1.3-7.8c0.7-5.4-0.3-9.5,0.1-13.9c0,1.2,0.1,1.2,0.1,2.4
	c0-11.7,2.1-14.9,2.2-19.5c0.2-4.6-0.6-13.2-1.1-10.1c-0.4-3.7,0.4,15.5-1.3,8.8c2-6.7-0.7-13.7,0.6-28.2c0.7,6.4,1.1-3.7,1.7,1.9
	c-0.2-6.9-0.5-7.2-1-10.3l0.6-2.1c-1.4-9-1.2-2.1-2-15.8c0.5,4.6,0.9-5.5,1.3-2c0-3.8-0.1-7.5-0.5-10.3l0.1,0.5
	c-0.3-13.9,0.8-11.3,0.1-24l-0.4,1.3c-1-16.5-0.4-37.4-0.8-54.5L1,160.4c0.1-2.7-0.6-11.4,0-16.3c0,1.1,0.2,2.9,0.2,3.9
	c0.4-0.2,1-2.2,1.2-6.3l-0.6-1.6l0.5-1.7c0-6.3-0.9,1.8-0.9-4.4c1.8-3.7,0.2-27,1.9-32.4c-1.3-4.3-0.2,11.9-1.4,7.2
	c0.2-1.9,0.4-2.8,0.6-6.8l-0.8,1.4c0.5-18.9,1.1-26.2,1-43.1L2.5,61c0.3-6,0.2-9.2-0.5-11.9c0.4-1.3,0.6,3.1,0.9,0.7
	C0.9,39.2,4.4,28.7,3,22.2c1.6,0.8,3.2-13,4.4-7.2l-0.2-4.3c1.1,1.4,0,13.6,1.1,16.1L7.2,40.4c0.4-0.4,1,1.8,1.1-0.4
	c0,3.4,0.1,6.3,0.7,1.9c-2.7,32.7-0.1,66.3-1.5,98.4c0.1,2.2,0.5,0.9,0.7,0.1c-1,5.9,0.5,5.7,0.7,8.9l-1.5,8.7
	c0.4,3.5,0.9,0.8,1.2,1c0.3,16.4-1.1,32.4-0.3,45.7c-0.5,4.2-1.2-1-1.4,4.6c1.5-7.3,0.8,14.6,1.7,11.8c-1.5,5.7-0.3,19.6-2.5,17.3
	c-0.1,6.7,1,5.5,1.2,3.6c-0.1,7.8-0.1,14,0.6,20.4c-0.5,4.3,0.6,35.4-1.1,42.4c1.1-4.7,0.6,0.4,1,4.9l1-4.1l-0.1,10.2
	c0.1,2.1,0.1,2.7,0,2.7c0,1.7-0.6-0.4-0.8,4c-0.1,7,0.5,7.3,1,11.1l0.1-1.1l0.1,4.7c0,3.5-1-12.3-1.5-0.9c0.3,0.2,1.6,6.8,0.9,9.9
	c0.1-5.8-0.6-5.1-0.9-2.9l-0.1,8.1l1.2-2.7C8.6,372,7.7,396.2,7.8,421c-1.1-0.3-0.1,17.6-1.6,15.3l0.2-1c-0.2-6.1-1.3,1.8-1.1,6.7
	c0.5-5.2,1.6,9.3,1.8-3.3l0.7,9.8c1.5,2.7,1.5,9.2,1.1,16.9c-0.2,3.8-0.4,18-0.5,22.1c-0.1,2.1-0.1,24.1-0.1,26.1c0,0.4,0,0.7,0,1.1
	c0,0.2,0,0.5,0,0.7c0,0.5,0.1,0.9,0.1,1.3c-0.1-0.4-0.3-0.5-0.4-0.5c0.1,0.5,0.1,0.9,0.2,1.4c0.8-0.1,1.6-0.1,2.4-0.1h1.5
	c0.8,0,1.6,0,2.4,0c3.1,0.1,6.2,0.2,8.9,0.3c5.5,0.3,9.7,0.5,11.2,0.3l1.2,0.8c11.2-1.3,1.1-1.4,14.5-0.9c-0.2,0.1-1.7,0.4,0.4,0.5
	c3.2-0.6,6.5-1.2,15.6-1.1l-0.4,0.3l14.3-0.1c0,0.4,0.5,0.6,1.4,0.7c0.2,0,0.5,0.1,0.8,0.1c0.3,0,0.5,0,1,0c0.9,0,1.9,0,2.9,0
	c0.5,0.4,1,0.8,1.5,1.3c0.5,0.4,1,0.8,1.5,1.3c0.8,0.7,1.7,1.4,2.6,2.1c1.8,1.5,3.7,3,5.5,4.5c3.5,3,6.4,5.8,6.9,7.5
	c2.6,1.3,10.5,8.2,14.2,11c0,0.1,0.1,0.4,0.6,1c0.2,0.1,0.4,0.2,0.7,0.4l0.3,0.2c0.1,0.1,0.1,0.1,0.2,0.1c0.3,0.1,0.5,0.3,0.7,0.4
	c0.5,0.3,0.9,0.7,1.4,1.2c0.9,1,2.2,2.4,3.5,3.9c0.2-0.9,0.3-2,0.2-3.1c-0.2-1.4-0.4-1.8-0.6-1.9c-0.2-0.1-0.4,0.1-0.6,0.2
	c0.3-0.5,0.3-1.6,0.3-2.7c-0.1-1-0.1-2-0.2-3.1c-0.1-1.2-0.2-2.5-0.3-3.7c-0.4-4.8-0.8-9-0.6-10.4c0-0.4,0-0.7,0-1c0-0.4,0-0.7,0-1
	c0-0.8,0.1-1.3,0.1-1.7c0.1-0.8,0.2-1,0.4-1c0.3,0.1,0.7,0.9,1-0.1c-0.1-4.1-0.3-5.6-0.6-6.3c-0.3-0.7-0.6-0.4-0.8-1.3
	c0.2-0.1,1-0.2,2.5-0.1c1.6,0,4,0.1,7.5,0.3c-2.2,0.1-6.2,0.2-4.6,0.4c0.9,0,1.9,0.1,3,0.2c0.5,0.1,1.1,0.1,1.6,0.2
	c0.3,0,0.5,0.1,0.8,0.1l0.2,0l0.1,0l0.3,0.1c1.4,0.3,3,0.7,4.5,1c3.1,0.7,6.1,1.3,8.3,1l-2.9-0.5c8-0.7,18.9,2.1,20.2,0.4l-0.7-0.8
	c13.8,1.1,245.8-0.3,259.8,0.6l-0.2,0.1c6.1-0.2,9.4,0.9,12.4-0.4l-2.1-0.2c7.6-0.1,8.2,0,15.9,0.1c0.5-0.1,1.6-0.1,2.8-0.2
	c0.7,0,0.9,0,1.3,0c0.3,0,0.6,0.1,0.8,0.1c0-0.3,0.9-0.5,2.1-0.6c0-0.8-0.1-1.7-0.1-2.7c0-1.4,0-2.9,0.1-4.3
	c0.1-3.3,0.1-26.2,0.2-27.4c0.2,6.1,0.6,3.2,1.1,1.5c-0.9-3.6-1-16.1-0.3-21.1c-1.3-0.7-2.8-1.7-2.9-11.5c0.2,1.5,0.3,3.9,0.6,2.9
	c0.3-1,0-3.3-0.1-4.1c0.3-1,0.5,2.2,1,1.1c-1.3-6.6-0.1-11.5-0.5-21.1c0.4,3.1,0.7,0.4,1.1-0.7c-1.5-0.7,1.3-13.2-0.6-9.5
	c1.2-18.8,0.1-47.8,1.4-55.1c0.6-2-0.3-7.2-0.4-10.5l0.7,0.4c-1.2-9.2-0.4-7.1-1.7-17.9c0.8,4.5,1.2,2.6,1.8-1.9l-1.4-7.4l1-1.4
	c-0.4-3-0.2-6.4-0.1-9.7c-1.1-3-1-14.5-1.7-16.4c1.4-3.3-0.4-8.9,1-11.3c-0.2-1.1-0.4-2.5-0.5-4c-0.6,1.6-1.3,2.2-1-0.8
	c0-0.3,0-0.5,0-0.7l0.8-1.3c-0.2-3-0.3-6.1-0.3-8.2c-0.1,0.9-0.2,2-0.4,3.1c0.1-1.3,0.3-2.5,0.4-3.7c0-0.4,0-0.8,0-1.1
	c0,0.2,0,0.4,0,0.7c0.2-1.9,0.3-3.8,0-6.4c1.2-10.7-1.7-23.7,0-35.4c-0.2,1.8-0.3,4.3,0,4.9c-0.1-9.8,1.1-19.6,0.5-25.8l-0.8,0.4
	c-0.3-7.2-0.6-12.8-0.5-18.6l-0.9-0.3c0.3-8.4-1.1-26.5,0.7-31.7c-0.7-2.1,0.2-11.7,0-16.5l0.7-1.2c0.2-6.3,0-10.1-0.2-13.9
	c1.4-12.7,0-24.4,0.1-35.5l0.2-0.1l-0.5-11.2c0.6,2.9-0.4-2.2-0.2-5.6c-0.3-3.6-0.1-9.4,0.3-13.6l0-7.2c0.4,7.3,0.9,0.7,1.5-0.8
	c-0.3-0.3-0.7-0.1-0.9-1.1c0.1,0.1,0.4,0.2,0.4-0.2l-0.6-1.4c0,4.1-1.4-6.3-0.7-4.6c-0.3,1,0.8,0.3,0.6,2.1c0,0.8,0.1,1.4,0.1,1.9
	c0.2,0.3,0.5,1.3,0.7-0.3c-0.6-3.6-1.1-5.8-0.7-8.8c-0.1-1.5-0.3-1.7-0.6-1.6c0,0.1,0,0.2,0,0.2c0-0.1,0-0.1,0-0.2
	c0,0-0.1,0.1-0.1,0.1c0,0.2,0,0.4,0,0.6c0-0.1,0-0.4,0-0.6c-0.4,0.5-0.9,1.7-0.8-0.4c0.4-0.3,0.7-0.5,1-1c0-0.6,0.1-1.1,0.1-1.6
	c0,0.6-0.1,1.1-0.1,1.6c0.3-0.5,0.5-1.1,0.6-2.2c-0.1-0.3-0.2-0.4-0.3-0.6c0,0.3-0.1,0.5-0.1,0.8c0,0.4,0,0.4,0,0.1
	c0,0.1,0,0.2,0,0.3c0-0.1,0-0.2,0-0.4c-0.1-0.4-0.2-1-0.3-1.3c0-0.1,0-0.2,0-0.2c-0.2-0.4-0.5-0.8-0.6-1.9l0.7,0.1
	c0-3.1-0.2-1.5-0.5-1.4c0.4-2.4,0.6-4.5,0.7-6.3c-0.7,0.3-1.7,3.2-2,3.7c0.8-2.8,0.3-4.8,1.6-6.4l0.3,2.5c0.1-0.2,0.1-0.4,0.1-0.6
	c0.1-1,0.1-2,0.2-3c-0.2-1.7-1-2.2,0.2-3.7c-0.1-0.3-0.2-1.4-0.2-2.8l0,0c0-0.1,0-0.1,0-0.1c0-0.8,0-1.7,0-2.6c0-1,0-2,0-3
	c0-0.2,0-0.4,0-0.6c0-0.1,0-0.2,0-0.2c0-0.1,0-0.2,0-0.3c0-0.1-0.1-0.1-0.1-0.2c0,0,0,0.1,0.1,0.2c0,0,0,0,0-0.1
	c-0.1-0.5-0.3-0.5-0.6,0c0.1-0.1,0.1-0.3,0.2-0.4c-0.3,0.2-0.6,0.4-0.6,0.4l0-0.1c0,0,0.2-0.2,0.5-0.3c0,0,0.1-0.1,0.1-0.1
	c0.2-0.5,0.3-0.8,0.3-1c-0.1,0-0.2,0.1-0.2,0.1c-0.6,0.4-0.9,0.6-0.9,0.2c0.1,0,0.2-0.1,0.4-0.1c0,0-0.2-0.5-0.3-0.5
	c-0.3,0.6-0.7,0.9-0.9,1c-0.1,0.1-0.2,0.1-0.4,0.2c0,0-0.2,0-0.3,0l-0.4,0c-0.3,0-0.6,0-0.9,0c-2.4,0.1-4.8,0.1-4.9,1.3
	c-2.3-0.9-0.2-0.6,2.8-1.6l-2.4-0.7c1-0.1,1.8,0.1,2.9-0.1c-3.2-1-6.2,0.3-8,0.8c-0.3-0.1-0.4-0.2-0.4-0.3l-2.6,0.5l1.2-0.8l1.4-0.1
	c0-0.5,0.1-0.9-2.1-0.7c-0.2,0-0.4,0-0.6,0.1c-0.1,0.1-0.1,0.1-0.2,0.2c-0.1,0-0.3-0.1-0.4-0.1C439.2,7.9,439,8,438.9,8l1,0
	c-0.1,0.1-0.4,0.2-1.1,0.4c0.3,0.5,1.8,1,0,1.2l-1.7-0.9c-0.5,0.1-1.2,0.1-1.9,0.2c-0.3,0-0.5-0.1-0.7-0.1c-2.8,0.3-5.1-0.3-7.7-0.4
	c-0.7,0.1-1.1,0.2-1.3,0.3c-3.4-0.5-247.1,1.2-249.7,0.8c0.6-0.2-1.5-0.7-1.8-1l-4.6,0.7c1.5-0.2,1.8-0.6,2.1-1.1
	c-2.7,0-5,0.1-7.2,0.3c0.3,0.1,0.8,0.1,1.3,0.2c-1.2,0-3.8,0.4-5.6-0.1c0.1-0.2,0.5-0.4,0.7-0.6c-0.7,0-1.4,0-2.1,0
	c0,0.1,0.1,0.2,0.2,0.2C158.1,8,157.5,8,157,7.9c-0.2,0-0.4,0-0.6,0c0.1,0,0.2,0,0.3,0c-1-0.1-1.8,0-3,0.2c0.9-0.1,1.8-0.1,2.8-0.1
	c-1,0.2-1.9,0.3-3.1,0.4c-0.1,0-0.3-0.1-0.4-0.1c-0.1,0-0.2,0-0.3,0.1l0.1-0.1c0,0-0.1,0-0.1,0c0,0,0.1,0,0.1,0l0.4-0.8l-2.5,0.3
	l2-1.1c-4.8-0.6-0.9,1.6-6.2,1.1l0-0.8c-2.1,0.3-2.8,1.7-4.3,0.7c-0.8,0.2-0.4,0.4,0.1,0.6c1,0,1.7,0,2,0c-0.4,0-1.1,0-2,0
	c0.6,0.3,1.2,0.5-0.6,0.6l0.2,0.1c-0.2,0-0.4,0-0.6,0c-0.1,0-0.2,0-0.4,0c0,0-0.1,0-0.1-0.1c-2-0.2-2.6-0.5-3-0.6c0.2,0,0.3,0,0.5,0
	c-0.5-0.1-0.9-0.1-1.3-0.2c-1.3,0.3,0.6,0.8,1.7,0.9c-3.7,0.1-4.6-0.8-5.7-1.4l-3.9,0.3c0,0.1-0.1,0.2-0.1,0.3c0,0,0,0,0.1,0l-0.1,0
	c-0.1,0.4,0,0.6,2.7,0.6c-1.5,0.3-3-0.2-4.6-0.5l-3.3,0.3c-0.2-0.2,0-0.3,0.9-0.4l1.3-0.8c-0.9,0-1.9,0.4-2.4,0.5l0.2-0.8
	c-3.1,1.4-5.9-0.7-7.7,1.2c1.3-1.4-2.3,0.1-3.6-0.5c1-0.4,2.4-0.5,3.7-0.5c2.1-0.3,1.8-0.6,1.8-0.8c-0.4,0-0.7,0-1.1-0.1
	c0.8-0.2,2-0.5,2.3-0.8c-4-0.8-6.2,0.8-8.7,1.2l4.3-0.3c-0.3,1.3-1.9,0.2-3.1,1.3c-2.1-0.7-3.8,0.3-5.5-0.1c0.5,0,0.5-0.1,1-0.1
	c-1.7,0-3-0.3-4-0.6L99,7c0,0.1-0.2,0.3-0.5,0.6c-0.3-0.2-0.5-0.3-0.8-0.4l-4.6,0.4l4.4-0.5C95.1,6.2,92.3,8.2,87.2,7
	c2.5-0.7-1.5-1.1,0.8-1.7c-2.8,0.2-2.9,0.5-4.1,1l-0.8-0.6c-3.6,1.4-0.8,1.2-6.3,2c1.8-0.5-2.2-0.9-0.8-1.3c-1.5,0-3,0.1-4.1,0.5
	l0.2-0.1c-4.4,0.3-4.7-0.4-7.1-0.3c0.1,0,0.2,0.1,0.3,0.1c-0.3,0-0.7,0-1-0.1c-0.5,0-1.1,0.1-1.7,0.2l0.5,0.4
	c-6.6,1-14.9,0.4-21.7,0.8l2.2,0.3c-1.1-0.1-4.5,0.6-6.5,0c0.4,0,1.2-0.2,1.6-0.2c-0.1-0.4-0.9-1-2.5-1.2l-0.6,0.6l-0.7-0.5
	c0,0,0,0-0.1,0c0.1,0.1,0,0.2-0.3,0.4c-0.2-0.1-0.4-0.1-0.6-0.2C33.8,7.6,34.6,8,33,8c-0.5-0.6-0.6-0.9-0.5-0.9C32.2,7,32,7,31.7,7
	l0.6,0.8c-7.5-0.5-10.4-1.1-17.2-1l0.3-0.2c-1.2-0.2-2.1-0.2-2.9-0.1c-0.4,0-0.8,0.1-1,0.2c-0.2,0.1-0.3,0.2-0.4,0.4
	c-0.4-0.4,0.7-0.6,0.1-0.9c-0.6,0.5-1,0.7-1.6,0.7c-0.2,0-0.4,0-0.5-0.1L9,7L8,8.2C8,7.8,8.1,7.3,8.1,6.7c-0.2,0-0.4-0.1-0.6-0.1
	C7.3,6.9,7,7.4,6.9,7.9c0,0.1,0,0.1,0,0.2c0.2,0,0.8,0.4,0,0.6c0,0.3,0.1,0.7,0.3,1c-1.6-1-3.2,4.8-4.4,2.5L3,13.9
	c-0.5-0.3-0.5-1.6-0.6-3c0-0.5,0-0.9,0-1.4c0-0.5,0-1-0.1-1.4C2.3,7.2,2.1,6.4,1.9,5.9c0.3-1.6,0.6-3,0.8-4.2c0.9,0,2,0.1,3,0.3
	c-0.5-0.4,0.4-1-1-1.1c1,0,1.9,0,2.3-0.1C7.3,0.6,7,0.4,5.5,0.1l4,0.4l1.9,0.2l1.3,0.2c1.6,0.2,3.3,0.3,4.9,0.4
	c3.3,0.2,6.6,0.1,9.9,0.1C34,1.3,29.1,1,35.6,1.7c0.9-0.1,0.4-0.5,0-0.7c2.4,1,2.3-0.5,3.6-0.7l3.5,1.5C44,1.3,42.9,0.9,43,0.6
	c6.5-0.3,12.9,1.1,18.2,0.3C62.9,1.4,60.8,2,63,2.2c-3-1.5,6.5-0.7,4.6-1.8c2.2,1.6,8,0.3,7,2.6c2.7,0.1,2.2-1,1.4-1.2
	c3.1,0.1,5.6,0.1,8.1-0.6c1.7,0.5,14.1-0.6,16.9,1.1c-1.9-1.1,0.1-0.6,1.9-1.1l-1.6-1l4.1,0.1c0.8-0.1,1.1-0.1,1.1,0
	c0.7,0-0.2,0.6,1.6,0.8c2.8,0.1,2.9-0.5,4.4-1l-0.4-0.1l1.9-0.1c1.4,0-4.9,1-0.4,1.5c0.1-0.3,2.7-1.6,3.9-0.9
	c-2.3-0.1-2,0.6-1.2,0.9l3.2,0.1l-1.1-1.2c9.3,0.1,18.9,0.9,28.8,0.9c-0.1,1.1,7,0.1,6.1,1.6l-0.4-0.2c-2.4,0.2,0.7,1.3,2.7,1.1
	c-2.1-0.5,3.7-1.6-1.3-1.8l3.9-0.7c2.2-3,10.4,0.3,16.3-0.7c-0.4,0.1-0.5,0.3-0.6,0.4c5.2-1,251.7,0.8,252.9,0.3l0.5,0.8
	c4.5-1.3,5-1.4,10.3-0.9c-0.1,0.1-0.7,0.4,0.2,0.5c1.3-0.6,2.6-1.2,6.2-1.1L444,1l5.7-0.1c0,1.3,2.3,0.9,4.9,0.6
	c3.6-0.4,8.4-0.7,8.6,0.5c-0.1,0.1-0.1,0.3-0.2,0.4c0.4,0.4,0.6,2,0.8,3.9c0.1,1,0.2,2,0.3,3c0,0.5,0.1,1,0.1,1.4
	c0,0.3,0.1,0.6,0.1,0.8c-0.1,0-0.2,0.1-0.3,0.4c1.4,2.2-0.4,6.3-0.3,8.8c0.3,1.6,0.8,0.9,1.2,0.2c-1.1,3.1,1.2,8.7,0.8,9.8
	c-0.1,2.3-1,0.9-1.6,1.5c0.2,3.4,2.3-0.6,1.3,4c-0.1-0.5-0.2-1.5-0.4-1.1c-0.2,1.7-3.2,4.9-2.6,6.6l0.5-1.2c0.7,3.2-2.1,7.5-0.4,8.1
	l0.8-0.3c-1.1,5.5,0.3,2.3-0.6,7.9l-0.1-0.1c0.2,2.4-0.9,3.7,0.4,4.9l0.2-0.8c0.1,3,0,3.3-0.1,6.4c0.1,0.4,0.3,1.8,0,2.3
	c1.1,0.1,0.5,7.1,0.4,8.5c-0.2-2.4-0.6-1.3-1.1-0.6c0.9,1.4,1,2.4,0.3,4.4c1.3,0.3,2.8,0.7,2.9,4.6c-0.2-0.6-0.3-1.6-0.6-1.2
	c-0.3,0.4,0,1.3,0.1,1.6c-0.3,0.4-0.5-0.9-1-0.4c1.3,2.6,0.1,4.6,0.5,8.4c-0.4-1.2-0.7-0.2-1.1,0.3c1.5,0.3-1.3,5.2,0.6,3.8
	c-1.1,6.8-0.3,17-1.1,21c0.1,0.3,0.1,0.4,0.2,0.5c-0.3,1.2-0.5,1.3-0.6,0.7c-0.3,0.9,0.4,2.8,0.4,4l-0.7-0.2
	c1.2,3.7,0.4,2.8,1.7,7.1c-0.8-1.8-1.2-1-1.8,0.8l1.4,3l-1,0.6c0.4,1.2,0.2,2.5,0.1,3.9c1.1,1.2,1,5.8,1.7,6.5
	c-1.4,1.3,0.4,3.5-1,4.5c0.2,0.4,0.4,1,0.5,1.6c0.6-0.6,1.3-0.9,1,0.3c0,0.1,0,0.2,0,0.3l-0.8,0.5c0.2,1.2,0.3,2.4,0.3,3.3
	c0.1-0.4,0.2-0.8,0.4-1.2c-0.1,0.5-0.3,1-0.4,1.5c0,0.2,0,0.3,0,0.4c0-0.1,0-0.2,0-0.3c-0.2,0.7-0.3,1.5,0,2.6
	c-1.2,4.2,1.7,9.4,0,14.1c0.2-0.7,0.2-1.7,0-2c0.1,3.9-1.1,7.8-0.5,10.3L465.1,181.6L465.1,181.6z M463.4,332.5
	c0-1.2-0.2-2.5-0.3-3.7c-0.1,0.8-0.3,1.8-0.6,3.2C462.5,333.1,463,333.1,463.4,332.5L463.4,332.5z M462.6,463.4
	c0.3-2.3,0.4-4.4,0.2-5.7C462.6,459.8,462.6,461.7,462.6,463.4L462.6,463.4z M8.1,319.2l0.2-1.6C8.1,316.6,7.9,315.6,8.1,319.2
	L8.1,319.2z M133,541.9c0.5-1.3,0-4.8-0.2-6.6C132.5,538.3,132.1,539.9,133,541.9L133,541.9z M459.3,318.2c-0.1-0.1-0.2-0.3-0.3-0.5
	C459,319.1,459.1,318.3,459.3,318.2L459.3,318.2z M457.1,68.9c-0.2,2.8-0.3,4.2,0,0.2C457.2,69,457.2,68.9,457.1,68.9L457.1,68.9z
	 M31.5,6.1c-0.7,0.6,0,0.7,0.9,0.7C32.4,6.7,32.1,6.5,31.5,6.1L31.5,6.1z M98.9,5.2c-1.8-0.2-5.3,0.6-4,1.1
	c-1.2,0.3,3.9-0.2,4.1,0.7l2.6-0.3l1.1,0C101,6,100.1,5.2,98.9,5.2L98.9,5.2z M106.2,0.8c-0.4,0.2-0.8,0.4,0.6,0.2L106.2,0.8
	L106.2,0.8z M116.1,7.2c1.6,0,3.1,0,3.7-0.4C118.7,6.9,117.3,7.1,116.1,7.2L116.1,7.2z M128.2,7.1c0.7,0.2,0.7,0.4,0.7,0.6
	c1.2-0.2,0.3-0.5,0.2-0.6l3.1,0.1C131.4,6.9,130.3,6.8,128.2,7.1L128.2,7.1z M161.5,6.6c-1.8,0-2.8,0.6-2.9,1.1c0.7,0,1.4-0.1,2.3,0
	c0,0,0,0,0,0c0,0,0,0,0,0c0.2,0,0.4,0,0.7,0c0.8,0,0.7,0,0.5,0.1c-0.3,0-0.5,0-0.8,0c0.2,0.1,0.3,0.1,0.5,0.1c0.1,0,0.2-0.1,0.3-0.1
	c0.3,0,0.6,0,0.9,0c0.4-0.1,0.7-0.4,1-0.6C160.6,7.4,163.1,7.1,161.5,6.6L161.5,6.6z M169.1,7.2l-2.8,0.6c0.8,0,1.7,0,2.5,0.1
	C169.4,7.7,169.8,7.5,169.1,7.2L169.1,7.2z M169.1,8c0.8,0,1.6,0,2.4,0.1c0.1-0.2,0.2-0.4,0.3-0.5C170.5,7.6,169.9,7.8,169.1,8
	L169.1,8z M457.4,20c0.1-0.3,0.1-0.6,0.2-1c-0.1,0.3-0.2,0.5-0.2,0.6C457.4,19.8,457.4,19.9,457.4,20L457.4,20z M457.5,8.2
	c-0.1,0-0.1,0-0.2,0c0,0.5,0.1,0.9,0.1,1.4c0,0.1,0,0.3,0.1,0.4c0.1-0.2,0.2-0.4,0.3-0.8C457.9,8.6,457.8,8.3,457.5,8.2L457.5,8.2z
	 M465,238.4C465,238.4,465,238.4,465,238.4C465.1,237.4,465.3,236.8,465,238.4L465,238.4z M464.8,251.9c0.1-0.1,0.2-0.3,0.3-0.6
	l-0.6-8.4c-0.2,0.4-0.5,0.9-0.7,1l0.6,1.8c-0.4,0.7-0.6-1.2-0.8,0.2C464,247.1,464,250.7,464.8,251.9L464.8,251.9z M462.5,256.7
	l0.3-0.2c0-0.1,0-0.2-0.1-0.3C462.6,256.5,462.6,256.7,462.5,256.7L462.5,256.7z M462,189.1c-0.5-1.2-1-1.9-1.4-0.2
	c-0.1,0.4-0.2,1.1-0.3,1.9c0.4,0.3,0.8,0.4,1.1-0.1C461.6,190.3,461.8,189.8,462,189.1L462,189.1z M460.7,157c0-0.1,0-0.2,0-0.3
	c0,0.1-0.1,0.1-0.1,0.1C460.6,156.9,460.7,157,460.7,157L460.7,157z M460.9,206.4c0-0.8,0.1-1.6,0.1-2.5c0.2-0.2,0.6-0.7,0.8-0.6
	c-0.3-1.8-1.5-4.3-2.4-4.7c-0.3,3.1-0.6,5.7-0.6,6.1C459.2,205.9,459.9,206.4,460.9,206.4L460.9,206.4z M459.3,83.6
	c0.2-0.8,0.2-1.6,0.2-2.3C459.2,82.2,459.1,83,459.3,83.6L459.3,83.6z M459.1,97.5c0.1,0,0.3-0.1,0.4-0.1
	C459.4,97.1,459.2,97,459.1,97.5L459.1,97.5z M458.3,75.1l0.7-3c-0.4-1.3-0.7-2-0.9-2.6c-0.2,2.9-0.2,5-0.2,6.8
	C458.1,75.8,458.2,75.4,458.3,75.1l-0.3,1.4c0,1.2,0.1,2.2,0.2,3.1l0.6-0.5c-0.3-0.6-0.5-1-0.4-1.2c0.1-0.1,0.3,0,0.4,0.3
	c-0.1-0.5-0.2-1-0.3-1.3c0.5-0.2,1.2,0.5,1.7,1.3c0-0.4,0.1-0.8,0.1-1.3C459.8,74.9,459,73.3,458.3,75.1L458.3,75.1z M460,80
	c0.1,0.1,0.2,0.2,0.2,0.4c0-0.3,0-0.7,0.1-1C460.2,79.6,460.1,79.8,460,80L460,80z M460.6,77.7l0,0.7c0,0.1,0.1,0.1,0.1,0.2
	C460.6,78.3,460.6,78,460.6,77.7L460.6,77.7z M460.7,78.6c-0.1,0.1-0.1,0.3-0.2,0.4l-0.1,1.5c0.2,0.2,0.3,0.4,0.5,0.5
	C460.8,80.2,460.7,79.3,460.7,78.6L460.7,78.6z M459.6,91.4c0.1,1.6,0.1,3.5,0,5.8c0,0,0,0,0,0c0.4-0.1,0.8-0.1,1.2,0.7
	C460.7,95.3,460.2,93.2,459.6,91.4L459.6,91.4z M461.8,76.3c-0.1,0.3-0.3,0.7-0.5,1.2c0,0.6,0,1.2,0,1.8c0,0.1,0.1,0.3,0.1,0.4
	c0-0.1-0.1-0.1-0.1-0.2c0,0.6,0,1.1,0,1.6c0.2-0.1,0.3-0.3,0.4-0.7c-0.1-0.2-0.2-0.4-0.3-0.7c0.5,0.6,0.8,1,1,0.6L461.8,76.3
	L461.8,76.3z M461.8,130.4c0,0.4,0,0.8,0,1.1c0.3,0,0.6,0,0.8,0.1L461.8,130.4L461.8,130.4z M462.9,139.1c0.1,0,0.2,0.1,0.3,0.2
	C463.1,138.8,463.1,139.1,462.9,139.1L462.9,139.1z M460.8,161.2c0.6,4.3,1.7,8.3,2.3,7.3l-0.2-0.9l0.6-0.8
	C463.1,164.8,461.9,162.8,460.8,161.2L460.8,161.2z M463.2,169c0,0.4,0,0.9,0,1.2c0.1,0.2,0.2,0.4,0.4,0.5L463.2,169L463.2,169z
	 M463,231.9c-0.3-0.4-0.7-0.4-0.8,0.6c0,2.3,0,4.5,0.1,6.6c0.5,0.3,1,0.6,1.6-0.8c0.1-0.4,0.1-0.7,0.2-1.1l-0.1-0.9c0,0,0.1,0,0.1,0
	C464.2,234.3,463.5,233.4,463,231.9L463,231.9z M116.4,553.7c-0.2-0.2-0.5-0.5-0.8-0.8l1.1,1C116.5,553.8,116.5,553.8,116.4,553.7
	L116.4,553.7z M463.5,484.3c0.2-0.1,0.3-0.3,0.4-0.8C463.8,485,463.6,485,463.5,484.3L463.5,484.3z M30.8,525.6
	c0-0.1,0.1-0.1,0.3-0.1l0.3,0L30.8,525.6L30.8,525.6z M456.1,17l0,0.5C456.1,17.4,456.1,17.2,456.1,17L456.1,17z M456.3,22.2
	l-0.2-4.7c0.1,0.8,0.3,0.1,0.5,0C456.5,18.8,456.3,19.7,456.3,22.2L456.3,22.2z M465,277.6c0,0.1,0,0.1,0,0.2l0.1,0.8
	c0.2,0.8,0.5,0.4,0.6,2c0-0.2,0.1-0.3,0.1-0.5c0.1,0.1,0,0.5-0.1,0.9c0,0.6,0,1.5-0.1,2.8c-0.2,0.4-0.4,0.7-0.5,0.7
	c0,0.9,0.1,1.7,0.4,2.5c0,1.3-0.4,0.8-0.6,0.6c0-1,0.1-2.1,0.2-3.1c-0.3,0-0.3-0.7-0.4-2c-0.3,0.1-0.7-2.4-0.5,0.9
	c-0.3-1.6-0.9-0.8-0.9-3.4c0.6-1,0.9-0.1,1.3,0.8c0-0.6-0.1-1.2-0.2-2c0.3,1.7,0.4-4.8,0.7-4l0-2.3c0.2,0.1,0.5,0.4,0.8,1.9
	C465.3,275.9,465.1,276.6,465,277.6L465,277.6z M464,276.6c0.1,0.8,0.2,1.6,0.3,2.4C464.2,278.6,464.1,278,464,276.6L464,276.6z
	 M9.2,17.6L9,15.9l0.6-3.2L9.2,17.6L9.2,17.6z M134.7,526.8c-0.2,0-0.3,0.2-0.3,0.2c0-0.4,0.1-0.6,0.4-0.5l0.3,0.3
	C135,526.8,134.8,526.7,134.7,526.8L134.7,526.8z M104.7,544.8l-0.1-1.4l0.9,2.2L104.7,544.8L104.7,544.8z M59.9,527.1
	c-0.5-1.1,1.7-0.2,5.7-0.1C63.7,527.1,61.7,527.2,59.9,527.1L59.9,527.1z M465.2,354.2c-0.2,0,0.6-0.8,0.8,0.7
	C465.8,354.7,465.1,355,465.2,354.2L465.2,354.2z M463.6,339.8l-0.4-1.9l0.7,2.1L463.6,339.8L463.6,339.8z M466.2,320.5
	c0,0.1-0.1,0.1-0.1,0.3c-0.3-3.2-0.3-1.2,0.1-1.7C466.1,319.8,466.1,320.2,466.2,320.5L466.2,320.5z M466.2,320.5
	C466.5,319.6,466.2,321.9,466.2,320.5L466.2,320.5z M466.3,315.8l-0.4-1.9c0.5-1.1,0.7-1.5,1,0.4
	C466.6,313.8,466.6,315.4,466.3,315.8L466.3,315.8z M465.2,313.2l-0.2-1C465.3,312.7,465.3,313,465.2,313.2L465.2,313.2z
	 M465.3,314.1c-0.7-0.6-0.3-0.7-0.1-0.9l0.4,2C465.3,314.3,465,313.9,465.3,314.1L465.3,314.1z M464.5,316.9
	c0.4,1.9,0.6,0.5,0.8-0.5C465.5,319.9,464.7,320.5,464.5,316.9L464.5,316.9z M465.8,304.5l-0.3-1.4c0.3-0.1,0.8-0.9,1-0.8
	C466.1,302.4,466,303.8,465.8,304.5L465.8,304.5z M465.1,301l0.4,2.1C465.2,303.2,465,302.9,465.1,301L465.1,301z M463.7,311.9
	l0-0.7l0.9,4L463.7,311.9L463.7,311.9z M466.5,294.4l-0.3-0.9l0.9,2.1L466.5,294.4L466.5,294.4z M467.6,288.9
	c-0.3-0.9-0.6,1.1-1.1,0.3c0.4-1.6,0.5-2.8,0.2-4C467.1,286.3,467.5,287.5,467.6,288.9L467.6,288.9z M466.1,283.4
	c0.3,0.6,0.4,1.2,0.6,1.8C466.5,284.6,466.2,284,466.1,283.4L466.1,283.4z M465.2,297.5c0-0.3,0-0.6,0-0.8l0.7-0.8
	C465.7,297,465.3,297.4,465.2,297.5L465.2,297.5z M465.2,296.7L465.2,296.7c0-1,0-1.5,0-1.8C465.2,295.2,465.2,295.8,465.2,296.7
	L465.2,296.7z M465.2,297.7c-0.1-0.1-0.1-0.1,0-0.2C465.2,297.6,465.2,297.6,465.2,297.7L465.2,297.7z M465.2,291.6
	c0,0.1,0,0.1,0,0.2C465.1,291.8,465.2,291.7,465.2,291.6L465.2,291.6z M465.1,272.7c0,0-0.1,0-0.1,0c0-0.1,0.1-0.1,0.1-0.2
	L465.1,272.7L465.1,272.7z M464.7,288c0-0.3,0-0.3,0.1-0.2c0,0.8,0.1,1.5,0.1,2.3C464.8,289.5,464.6,288.9,464.7,288L464.7,288z
	 M465.4,291.4c0-0.1,0-0.1,0-0.1C465.5,291.1,465.6,291.1,465.4,291.4L465.4,291.4z M465.2,291.6c-0.1-0.5-0.2-1-0.2-1.6
	c0.2,0.4,0.3,0.8,0.4,1.3C465.3,291.4,465.3,291.5,465.2,291.6L465.2,291.6z M465.4,272.1l-0.3-1.6l1.1,2L465.4,272.1L465.4,272.1z
	 M465.3,267.5l0.3-1l0.4,1.2L465.3,267.5L465.3,267.5z M465.3,155.1c0.2-0.7,0.2-1.5,0.1-2.5l0.7-0.5
	C466.9,151.9,465.9,153.6,465.3,155.1L465.3,155.1z M424.2,9.6l1.2-0.7C425.3,9.2,426.1,9.6,424.2,9.6L424.2,9.6z M465.1,220.6
	c-0.6-0.4,0-1.7,0.4-3.2C465.5,218.3,465.4,219.3,465.1,220.6L465.1,220.6z M464.4,11.4c0.2,0,0.3,0.3,0.4,0.9
	C464.6,12.4,464.5,12,464.4,11.4L464.4,11.4z M465.5,217.4c0-1.2-0.1-2.1-0.2-3.1c0.1-0.2,0.1-0.5,0.2-0.7
	C466,214.9,465.8,216.2,465.5,217.4L465.5,217.4z M36.7,8.1c0.1,0,0.2,0.1,0.3,0.1C36.8,8.2,36.7,8.2,36.7,8.1L36.7,8.1z M2.1,0.9
	c1.3-0.1,2.1-0.1,2.6-0.1C3.7,0.8,2.7,0.8,2.1,0.9L2.1,0.9z M461,203.9C461,203.9,461,203.9,461,203.9
	C460.8,204.1,460.8,204.2,461,203.9L461,203.9z M116.3,6.2c0.1,0,0.1,0,0.2,0.1C115.8,6.5,115.3,6.5,116.3,6.2L116.3,6.2z
	 M458.2,77.2c0.1-0.6,0.3-0.6,0.4-0.3C458.5,77,458.4,77,458.2,77.2L458.2,77.2z M425.4,8.8c0,0,0.1-0.1,0.1-0.1l0.1,0L425.4,8.8
	L425.4,8.8z M463,263.8c0,0.1,0,0.2,0,0.3c-0.1-1.5-0.4-2.8,0.3-3C463.6,262.6,464,264.2,463,263.8L463,263.8z M463,265.7
	c0-0.4,0-0.9,0-1.4C463.1,265.2,463.4,265.9,463,265.7L463,265.7z M461.7,253.6c0.1,0.6,0.1,1.5,0.1,1.9
	C461.7,255.1,461.7,254.4,461.7,253.6L461.7,253.6z M461,258.4l-0.2,0.7l0.2-2.4L461,258.4L461,258.4z M0.6,13l0.4-2l0.2,0.7L0.6,13
	L0.6,13z M2.1,16.5l-1-1.2l1.1-0.5C2,15.2,2.1,16,2.1,16.5L2.1,16.5z M455.4,33.5l-0.3-0.1l0.6-1.5
	C455.7,32.8,455.7,33.2,455.4,33.5L455.4,33.5z M441.6,10.4c-0.2-1.2,0.9,0,2.9-0.1C443.5,10.2,442.5,10.4,441.6,10.4L441.6,10.4z"
	/>
</svg>
