<?xml version="1.0" encoding="utf-8"?>
<!-- Generator: Adobe Illustrator 19.0.0, SVG Export Plug-In . SVG Version: 6.00 Build 0)  -->
<svg version="1.1" id="Layer_1" xmlns="http://www.w3.org/2000/svg" xmlns:xlink="http://www.w3.org/1999/xlink" x="0px" y="0px"
	 viewBox="0 0 1070 329" style="enable-background:new 0 0 1070 329;" xml:space="preserve">
<style type="text/css">
	.st0{display:none;fill:#231F20;}
	.st1{fill:#231F20;}
</style>
<path class="st0" d="M108.7,327.6C86.8,327.4,64.9,327,43,327c-8.4,0-16.9,0.5-25.3-1c-5.7-1-12.8-2.9-15.5-8.9
	c-2.6-5.7-2.5-293.4-1.7-299.5c0.6-4.4,1-9,4.6-11.9c4.7-3.8,11.9-4.5,17.6-5C31.3-0.2,40,0,48.6,0.1c16.6,0.3,33.4,2,49.9,1.4
	c1.5-0.1,1.5,2.4,0,2.5C82.6,4.6,66.4,3,50.4,2.7C43,2.5,35.5,2.3,28,2.7C21.4,3.1,12.2,3.1,6.7,7.5C2.5,10.8,2.4,299,2.4,303.9
	c0.1,8,1.3,14.9,9.1,17.9c7.3,2.8,15.3,2.8,23,2.8c8,0,16,0,24,0.1c16.8,0.2,33.5,0.3,50.3,0.5C110.3,325.2,110.2,327.7,108.7,327.6
	L108.7,327.6z"/>
<path class="st1" d="M79.6,326.2c-11.4-0.2-22.4-0.3-33.3-0.4c-12.2-0.2-25.3,1.1-35.8-3.1c-8-3.1-7.9-8.1-8.7-12.4
	C1,305.5,1.1,20.8,2,15.8c0.9-5.2,0.5-9.7,11.1-12.4c8.5-2.3,21.1-2.3,30.8-2.2C57,1.5,70,2,83.1,2.4c8.4,0.3,7.8,0.7,15.4,0.4
	l10.2,323.6C99,326.3,89.3,326.3,79.6,326.2L79.6,326.2z M1068.1,313c-0.9,4.4-1,9.3-9,12.2c-10.6,3.8-724.2,2.3-736.5,2.1
	c-11-0.1-185-0.3-196.4-0.4c-9.7-0.1-19.4-0.5-29.1-0.6L98.5,2.8c8.9-0.1,16.9,0.2,25.3,0.1c13.1,0,189.2-0.2,202.3-0.1
	c9.7,0.1,722.9,0.5,731.3,3c10.5,2.9,10,7.5,10.8,12.7C1069.1,23.5,1069,308.2,1068.1,313L1068.1,313z M1070,305.7
	c-0.1,5.1-0.6,12.4-4,16.5c-4.5,5.3-12.9,6.2-19.3,6.6c-9,0.6-718.6-0.2-727.5-0.3c-19.7-0.3-202.4-0.7-222-1c-1.5,0-1.5-2.5,0-2.5
	c19.1,0.3,201.2,0.7,220.3,1c7.9,0.1,716.4,0.6,724.3,0.5c6.9-0.1,19-0.1,23.3-7.1c3.6-5.9,2.8-294.9,2-301.4
	c-0.9-6.6-3.7-9.2-9.9-11c-14.4-4.2-731.2-3.1-746-3C294.7,4.1,115,3.9,98.5,4.1c-1.5,0-1.5-2.5,0-2.5c22-0.2,207.1-0.3,229,0.1
	c7.9,0.1,716.5,0.4,724.3,1.7c5.1,0.9,12.2,2.1,15.5,7C1069.9,14.4,1070.1,301.1,1070,305.7L1070,305.7z"/>
<polygon class="st0" points="1045.6,327.4 1029.6,326.4 1031.5,320.5 1032.5,320.5 1055,325.4 1045.6,327.4 "/>
</svg>
