<?xml version="1.0" encoding="utf-8"?>
<!-- Generator: Adobe Illustrator 19.0.0, SVG Export Plug-In . SVG Version: 6.00 Build 0)  -->
<svg version="1.1" id="Layer_1" xmlns="http://www.w3.org/2000/svg" xmlns:xlink="http://www.w3.org/1999/xlink" x="0px" y="0px"
	 viewBox="0 0 230 109" style="enable-background:new 0 0 230 109;" xml:space="preserve">
<path d="M7.7,105.2c1.3,0.3-0.5,1.6-1.3,1.4c-2.7-0.5-3.8-4-4.5-6.2c-2-6.9-2.3-71.7-1.4-78.8C1.1,15.8,2.5,8.2,7.6,4.4
	c3.8-2.9,9.3-2.6,13.9-2.9c7.7-0.5,15.5-0.8,23.2-1C64,0,83.3-0.2,102.6,0.3c8.3,0.2,98.6,0.5,106.9,1.1c4.6,0.4,10.2,0.4,14.5,2.1
	c4.9,2,5.4,9.7,5.8,14.1c0.6,7.7,0.3,73.2-2.2,80.6c-1.4,4.2-3.3,8-8.1,8.7c-5.7,0.8-11.5,1-17.2,1.2c-19.6,0.8-121.2,1-140.8,0.8
	c-18.2-0.1-36.6-0.2-54.7-2.3c-1.5-0.2-0.2-1.6,0.8-1.5c15.1,1.8,30.5,2,45.7,2.2c18.3,0.3,36.6,0.2,54.9-0.3
	c6.9-0.2,95.9-0.4,102.8-0.9c3.2-0.2,9.6,0.4,11.8-2.4c4-5.2,4.7-70.4,5-76.7c0.3-6.1,0.5-13.5-2.3-19.2c-2.3-4.6-8.9-4.3-13.4-4.7
	c-7.8-0.7-97.8-1.1-105.6-1.3c-19.9-0.6-39.8-0.5-59.6,0c-8,0.2-16,0.5-23.9,1C17,3.2,9.9,2.5,6.6,8.1C2.5,15,1.9,24,2.4,31.8
	C2.6,35.2,2.9,104.2,7.7,105.2L7.7,105.2z"/>
</svg>
