<?xml version="1.0" encoding="utf-8"?>
<!-- Generator: Adobe Illustrator 19.0.0, SVG Export Plug-In . SVG Version: 6.00 Build 0)  -->
<svg version="1.1" id="Layer_1" xmlns="http://www.w3.org/2000/svg" xmlns:xlink="http://www.w3.org/1999/xlink" x="0px" y="0px"
	 viewBox="-248.4 346.5 87 77.5" style="enable-background:new -248.4 346.5 87 77.5;" xml:space="preserve">
<style type="text/css">
	.st0{fill:#FFFFFF;}
</style>
<path class="st0" d="M-161.7,358.6c-1.3-8.5-13.2-8.6-19.8-9.7c-19.4-3.1-39-2.5-58.6-1.9c-2.2,0.1-4.3,1.5-4.8,3.7
	c-0.2,0.9-0.5,1.8-0.7,2.7c-0.2,0.8-0.2,1.5-0.1,2.2c-0.2,0.5-0.3,1-0.3,1.6c-1.1,18.9-2,37.9-2.5,56.8c-0.1,2,1.5,4.5,3.7,4.8
	c19,2.7,38.1,5.2,57.4,5.1c6.3,0,19.4,1.6,21.7-6.5c1.2-4.5,0.9-9.9,1.2-14.5c0.4-5.3,0.8-10.6,1.1-15.9c0.3-4.6,0.7-9.3,1-13.9
	C-162,368.5-161,363.3-161.7,358.6z M-173.2,385.1c-0.6,7.9-1.1,15.9-1.7,23.8c-0.1,2-0.3,4-0.4,5.9c0.2-2.5-2.8-1.2-4.3-1.2
	c-4.5,0.3-9,0.3-13.6,0.2c-15.1-0.2-30.2-2.1-45.1-4.2c0.5-17.5,1.3-35,2.4-52.5c0-0.1,0-0.2,0-0.3c13.9-0.4,27.9-0.6,41.8,0.5
	c7.8,0.6,15.5,1.9,23.1,3.8C-171.3,361.1-173.1,382.8-173.2,385.1z"/>
<path class="st0" d="M-180.7,421c-1.3,0-2.5,0-3.6-0.1c-1,0-2-0.1-2.8-0.1l-1.7,0c-19.3,0-39.4-2.8-55.5-5.1
	c-0.4-0.1-1.1-1.1-1.1-1.8c0.5-18.8,1.3-37.9,2.5-56.7c0-0.3,0.1-0.5,0.1-0.7l0.3-0.8l-0.2-0.8c-0.1-0.3,0-0.6,0.1-0.9l0.7-2.7
	c0.2-0.9,1.2-1.4,2-1.4c7.5-0.2,15.2-0.4,23-0.4c13.8,0,24.9,0.7,35,2.4c1,0.2,2,0.3,3.2,0.4c7.3,0.9,13.5,2.1,14.2,6.7
	c0.4,3,0,6.4-0.3,9.7c-0.2,1.4-0.3,2.8-0.4,4.2l-2.2,29.7c-0.1,1.5-0.1,3.1-0.2,4.6c-0.1,3.3-0.2,6.6-0.9,9.4
	C-169.5,419.7-173.2,421-180.7,421C-180.7,421-180.7,421-180.7,421z M-217.5,353.5c-6.6,0-13.1,0.2-18.6,0.3l-2.9,0.1l0,3
	c-1,17.2-1.8,34.9-2.4,52.7l-0.1,2.7l2.7,0.4c15.2,2.1,30.1,4,45.5,4.2c1.3,0,2.5,0,3.8,0c3.7,0,7-0.1,10-0.3c0.5,0,1-0.1,1.5-0.2
	c0.4-0.1,0.9-0.2,1.1-0.2h0c-0.2,0-0.6-0.1-1.1-0.6c-0.4-0.5-0.5-0.9-0.5-1.1l6,0.4l2.2-29.7c0.2-3.3,1.7-21.6,2.1-23.4
	c-0.2,0.9-1.2,2.2-2.9,2.2l0.7-5.9c-7.9-1.9-15.8-3.2-23.5-3.8C-201,353.8-208.7,353.5-217.5,353.5z"/>
<path class="st0" d="M-209.3,364.7c-1.7-0.5-3.1-0.2-4.1,0.6c-10-2.2-19.1,7.3-21,17.4c-2.3,12.5,5.2,24.9,17.8,27.6
	c12,2.5,22.2-7,24.3-18.3C-190,380.1-197.9,368.3-209.3,364.7z M-210.9,400.5c-7.2,2.1-13.1-5.4-13.8-11.8
	c-0.6-5.9,4-17.5,11.6-12.5c1.8,1.2,3.6,1,5,0.1C-199.9,382.4-199.4,397.3-210.9,400.5z"/>
<path class="st0" d="M-212.8,407.7c-1.1,0-2.2-0.1-3.2-0.3c-10.8-2.3-17.5-12.8-15.4-24.1c1.4-7.4,7.5-15.3,15.1-15.3
	c0.8,0,1.5,0.1,2.3,0.2l1.4,0.3l1.1-0.8c0.2-0.2,0.5-0.2,0.7-0.2c0.2,0,0.4,0,0.7,0.1c10.3,3.3,16.8,13.8,14.9,23.9
	C-197,400.8-204.5,407.7-212.8,407.7C-212.8,407.7-212.8,407.7-212.8,407.7z M-216.7,372c-2.4,0-4.7,1.1-6.6,3.2
	c-3.4,3.8-4.8,10-4.4,13.9c0.8,7.1,6.7,14.8,14.4,14.8c1.1,0,2.2-0.2,3.3-0.5c5.8-1.6,9.7-5.9,10.7-11.8c1.2-6.7-1.6-13.8-7-17.8
	l-1.7-1.3l-1.8,1.2c-0.2,0.2-0.5,0.2-0.7,0.2c-0.3,0-0.6-0.1-0.9-0.3C-213.2,372.6-215,372-216.7,372z"/>
<path class="st0" d="M-179.5,365.5c-2.7-1.4-5.5-2.1-8.5-2.3c-2.7-0.1-5,2.4-5,5c0,2.8,2.3,4.9,5,5c0.1,0,0.7,0.1,0.8,0.1
	c0.2,0,0.5,0.1,0.7,0.2c0.4,0.1,0.8,0.2,1.2,0.4c0.1,0,0.1,0,0.2,0.1c0.2,0.1,0.4,0.2,0.5,0.3c2.4,1.3,5.4,0.6,6.8-1.8
	C-176.4,370-177.1,366.7-179.5,365.5z"/>
<path class="st0" d="M-182,371.7c-0.4,0-0.8-0.1-1.2-0.3c-0.2-0.1-0.4-0.2-0.6-0.3l-0.1-0.1l-0.4-0.1c-0.4-0.1-0.9-0.3-1.5-0.4
	c-0.3-0.1-0.5-0.1-0.8-0.2l-0.3-0.1l-0.2,0c-0.1,0-0.6,0-0.7,0c-1,0-2.1-0.8-2.1-2c0-1,0.9-2,1.8-2c2.6,0.1,5,0.7,7.3,1.9
	c0.5,0.2,0.7,0.7,0.7,1c0.2,0.6,0.1,1.2-0.2,1.7C-180.8,371.6-181.6,371.7-182,371.7L-182,371.7z"/>
</svg>
