<svg xmlns="http://www.w3.org/2000/svg" xmlns:xlink="http://www.w3.org/1999/xlink" preserveAspectRatio="xMidYMid" width="25" height="42" viewBox="0 0 25 42">
  <defs>
    <style>
      .cls-1 {
        fill: #3b5a98;
        fill-rule: evenodd;
      }
    </style>
  </defs>
  <path d="M24.831,2.049 C24.576,0.256 20.340,-0.000 17.884,-0.000 C15.427,-0.000 12.885,0.256 9.581,2.049 C6.277,3.841 5.176,6.915 4.668,8.793 C4.329,10.756 4.837,16.220 4.837,16.390 C4.837,16.561 2.295,16.561 1.279,16.561 C0.262,16.646 0.093,17.073 0.008,17.329 C-0.077,17.585 0.432,24.756 0.432,24.756 L0.770,27.317 C1.363,27.658 4.074,27.488 4.498,27.573 C5.006,27.658 5.176,28.341 5.176,30.134 C5.261,31.927 5.515,38.841 5.515,40.293 C5.599,41.744 6.192,41.744 7.717,41.744 C9.242,41.744 15.173,42.000 15.511,42.000 C15.850,42.000 16.189,41.573 16.189,40.207 C16.189,38.841 16.613,27.658 16.698,27.402 C16.782,27.146 17.630,27.402 18.392,27.402 C19.154,27.402 22.797,27.146 23.475,27.061 C24.153,26.976 24.407,20.232 24.407,18.098 C24.407,15.963 22.967,15.793 22.120,15.793 C21.188,15.707 16.952,15.963 16.698,15.707 C16.443,15.537 17.545,12.207 18.900,11.524 C20.340,10.841 23.814,11.183 24.238,11.268 C24.661,11.354 25.000,10.329 25.000,9.561 C25.000,8.707 25.000,3.841 24.831,2.049 ZM21.781,16.476 C21.950,16.476 22.543,17.159 22.713,17.415 C22.882,17.671 22.628,18.183 22.543,18.268 C22.458,18.354 21.781,17.073 21.696,16.902 C21.611,16.732 21.696,16.476 21.781,16.476 ZM23.983,8.366 C23.560,8.451 19.832,8.024 17.630,8.793 C15.511,9.561 14.325,11.780 14.156,12.976 C13.987,14.171 13.987,16.390 14.325,16.390 C14.664,16.390 17.714,16.476 18.816,16.476 C20.002,16.561 20.595,16.476 20.679,16.646 C20.764,16.817 22.374,19.122 22.374,19.293 C22.374,19.463 22.204,20.232 22.120,20.146 C22.035,20.061 20.510,17.415 20.425,17.500 C20.340,17.585 20.002,18.012 20.256,18.268 C20.425,18.524 22.035,21.000 22.035,21.085 C22.035,21.171 21.781,21.768 21.696,21.598 C21.611,21.427 19.747,18.268 19.663,18.354 C19.578,18.439 19.239,18.780 19.409,19.037 C19.578,19.293 21.527,22.110 21.527,22.195 C21.527,22.366 21.527,23.476 21.357,23.476 C21.188,23.390 19.409,20.061 19.154,20.061 C18.816,20.061 18.731,20.659 18.900,20.829 C19.070,21.000 21.188,24.159 21.188,24.244 C21.188,24.329 20.679,24.585 20.510,24.500 C20.340,24.329 18.646,21.085 18.477,21.085 C18.307,21.085 17.799,21.341 17.968,21.512 C18.138,21.768 19.747,24.415 19.663,24.500 C19.578,24.500 19.239,24.671 18.985,24.329 C18.731,24.073 17.375,21.683 17.206,21.768 C17.036,21.854 16.698,22.195 16.867,22.366 C17.036,22.622 18.561,24.415 18.392,24.500 C18.222,24.585 17.375,24.500 17.291,24.415 C17.206,24.329 16.359,22.622 16.189,22.622 C16.020,22.622 15.766,22.963 15.850,23.134 C15.935,23.305 16.613,24.415 16.528,24.415 C16.443,24.415 14.580,24.329 14.495,24.585 C14.410,24.841 14.580,26.378 14.495,26.378 C14.410,26.293 13.563,24.585 13.394,24.585 C13.224,24.585 13.055,25.098 13.139,25.268 C13.224,25.524 14.580,27.061 14.580,27.232 C14.664,27.402 14.664,28.683 14.495,28.512 C14.410,28.341 13.139,26.037 13.055,26.122 C12.970,26.207 12.716,26.719 12.801,26.890 C12.885,27.061 14.580,29.451 14.580,29.622 C14.580,29.793 14.664,31.415 14.580,31.329 C14.495,31.158 12.631,27.744 12.546,27.744 C12.377,27.744 12.292,28.512 12.377,28.768 C12.462,29.024 14.580,32.183 14.580,32.354 C14.580,32.524 14.664,33.378 14.495,33.293 C14.410,33.207 12.207,29.110 12.038,29.195 C11.953,29.280 11.869,29.878 11.869,30.134 C11.953,30.390 14.410,34.232 14.495,34.317 C14.580,34.402 14.495,36.110 14.410,36.024 C14.325,35.939 11.784,31.500 11.614,31.500 C11.445,31.500 11.360,32.268 11.445,32.524 C11.530,32.695 14.410,36.793 14.410,36.963 C14.410,37.219 14.495,38.244 14.410,38.159 C14.325,38.073 11.276,33.122 11.191,33.122 C11.106,33.122 10.937,33.805 10.937,33.976 C11.021,34.146 14.325,39.183 14.325,39.354 C14.325,39.524 14.325,39.695 14.071,39.695 C13.902,39.695 13.648,39.695 13.478,39.524 C13.309,39.354 10.513,34.744 10.344,34.829 C10.174,34.915 10.090,35.598 10.174,35.854 C10.259,36.110 13.139,39.780 13.055,39.780 C12.970,39.866 9.073,39.524 8.819,39.524 C8.480,39.524 8.226,39.439 8.226,39.439 C8.226,39.439 8.395,39.268 7.972,38.841 C7.633,38.415 7.040,37.817 6.870,37.988 C6.616,38.159 6.701,38.415 6.870,38.585 C7.040,38.756 7.633,39.183 7.548,39.268 C7.463,39.354 5.938,39.268 5.854,39.098 C5.769,38.927 5.769,32.780 5.684,30.646 C5.599,28.512 5.515,25.439 5.091,25.098 C4.583,24.756 1.109,24.671 0.940,24.500 C0.770,24.329 0.347,17.500 0.601,17.415 C0.855,17.329 4.159,17.500 4.668,17.159 C5.261,16.817 5.345,16.220 5.261,15.451 C5.176,14.683 4.668,9.305 5.684,7.256 C6.701,5.207 8.649,3.244 11.699,1.963 C14.749,0.768 18.477,0.854 21.103,1.195 C23.729,1.537 23.983,2.049 23.983,3.244 C24.322,4.439 24.322,8.280 23.983,8.366 ZM6.362,17.159 C6.192,17.159 6.192,17.841 6.192,18.012 C6.192,18.268 4.837,18.098 4.498,18.098 C4.159,18.098 3.820,18.183 3.905,18.439 C3.905,18.524 3.905,18.780 4.074,18.866 C4.244,18.951 6.870,18.951 7.124,18.951 C7.379,18.951 7.294,17.585 7.294,17.329 C7.124,17.073 6.531,17.159 6.362,17.159 ZM10.344,4.610 C9.666,4.951 8.395,5.976 7.548,7.341 C6.785,8.622 6.531,9.646 6.531,10.500 C6.531,11.354 6.616,11.951 6.785,12.037 C6.955,12.122 7.209,12.037 7.379,12.037 C7.548,12.037 7.379,9.561 8.480,7.598 C9.581,5.634 11.276,5.122 11.530,5.122 C11.784,5.122 11.784,4.695 11.699,4.354 C11.699,4.012 11.021,4.268 10.344,4.610 ZM15.427,8.707 C15.257,8.622 14.495,8.878 14.156,9.305 C13.732,9.732 13.055,10.927 12.885,11.354 C12.716,11.780 12.801,12.378 13.055,12.463 C13.309,12.549 13.478,12.463 13.648,12.378 C13.817,12.293 13.817,11.439 14.156,10.671 C14.495,9.902 15.511,9.476 15.681,9.390 C15.766,9.305 15.596,8.793 15.427,8.707 ZM20.425,1.878 C20.086,1.793 19.832,2.561 20.086,2.646 C20.256,2.732 21.611,2.902 21.950,2.988 C22.289,3.073 22.543,2.988 22.628,3.244 C22.713,3.500 22.628,5.634 22.797,5.719 C22.967,5.805 23.560,6.061 23.560,5.463 C23.560,4.866 23.644,2.561 23.390,2.390 C23.051,2.219 20.849,1.963 20.425,1.878 ZM8.226,36.537 C7.972,36.622 7.887,36.793 8.141,37.219 C8.395,37.646 9.751,39.268 10.005,39.268 C10.259,39.268 10.513,39.012 10.344,38.756 C10.090,38.415 8.480,36.451 8.226,36.537 ZM9.666,35.854 C9.581,35.768 9.158,36.195 9.242,36.366 C9.242,36.366 11.021,38.671 11.276,39.012 C11.530,39.354 11.784,39.439 11.953,39.268 C12.207,39.098 11.869,38.756 11.699,38.415 C11.614,38.073 9.751,35.854 9.666,35.854 Z" class="cls-1"/>
</svg>
