<?xml version="1.0" encoding="utf-8"?>
<!-- Generator: Adobe Illustrator 19.0.0, SVG Export Plug-In . SVG Version: 6.00 Build 0)  -->
<svg version="1.1" id="Layer_1" xmlns="http://www.w3.org/2000/svg" xmlns:xlink="http://www.w3.org/1999/xlink" x="0px" y="0px"
	 viewBox="0 0 374 73" style="enable-background:new 0 0 374 73;" xml:space="preserve">
<path d="M374,14.2c-0.2,3.7-0.3,44.5-0.6,48.2c-0.2,2.5-1.7,4.9-3.2,7.2c-0.9,1.5-3.4,2.2-6.1,2.6c-3.3,0.4-6.6,0.8-9.9,0.8
	c-8.7,0-17.4-0.2-26.1-0.4c-1.8,0-3.6-0.1-5.4-0.1c-10,0-209,0.1-219,0c-8.1-0.1-16.2-0.4-24.2-0.5c-3.8,0-7.5,0.2-11.3,0.3
	c-7.3,0.1-14.6,0.2-21.9,0.3c-3.9,0.1,19.3,0.1,15.4,0.2c-0.6,0-1.2,0-1.8,0c-11-0.5-22,0.3-33,0.3c-4.8,0-9.6,0.1-14.4-0.5
	c-1.3-0.1-2.5-0.3-3.7-0.5c-2.9-0.5-4.7-1.5-5.6-3c-1.9-3.1-3-43.4-2.9-46.7c0.1-5.8-0.2-1.4-0.1-7.1c0-2,0.4-4,1-5.9
	C1.4,8,2.3,6.8,3.2,5.8C4.5,4.1,7,3,10.4,2.6c3.4-0.4,6.9-0.8,10.4-1c9.9-0.6,19.8-1.1,29.8-1.5c5.7-0.2-15.5,0-9.7,0
	c4,0,8.1,0.2,12.1,0.3c2.2,0.1,4.5,0.2,6.7,0.3c3.2,0.1,6.4,0.2,9.7,0.1c6.3-0.2,12.8-0.3,19.1,0C92.3,1,96,0.8,99.7,0.6
	c2.1-0.1,4.3-0.2,6.4-0.2C119.2,0,321.3-0.3,334.4,0.5c8.4,0.5,16.7,1.1,25.1,1.6c7,0.4,11.3,2.4,12.8,5.9c0.7,1.6,1.3,3.2,1.4,4.8
	c0.2,3.8,0.1-2.5,0.1,1.3C373.8,14.2,373.9,14.2,374,14.2L374,14.2z M3.4,12.2c0.2,3.9,0.5,6.8,0.6,9.7C4,24.9,5,65.1,6.8,68
	c0.7,1.2,2,1.9,4.3,2.1c2.8,0.3,5.6,0.7,8.4,0.7c7.7,0,15.5-0.2,23.2-0.3c3.2,0,6.4-0.2,9.5-0.2c10.4-0.1-6.2-0.2,4.2-0.3
	c8.3-0.1,16.7-0.3,25-0.3c6.4,0,12.9,0.2,19.4,0.3c10.7,0.1,210.4,0.2,221,0.3c2.5,0,5,0.1,7.5,0.1c8.2,0.1,16.3,0.4,24.5,0.4
	c3.1,0,6.1-0.4,9.2-0.7c1.5-0.2,3-0.5,3.4-1.4c1-1.9,2.3-3.7,2.6-5.7c0.7-4.4,1-45.9,1.1-50.3c0.1-3.7-0.2,2.9-0.6-0.8
	c-0.2-1.6-1.2-3.1-2.2-4.6c-1.1-1.6-3.5-2.5-6.9-2.8c-2-0.2-4.1-0.4-6.1-0.5c-6.1-0.4-12.1-0.8-18.2-1.1c-9.8-0.5-19.5-0.9-29.4-0.6
	C299.6,2.5,103.3,2.7,96,2.8c-5.6,0.1-11.2,0-16.8,0c-6.9,0-13.8,0-20.7,0c-4.5,0-9-0.1-13.4-0.3C38.5,2.1,58.9,2,52.3,2.2
	c-9,0.4-18,0.8-27,1.3c-4,0.2-8,0.7-12,1c-3.4,0.3-6,1.2-7,2.9c-1,1.5-1.9,3.1-2.2,4.7C3.6,15.9,3.5,9.4,3.4,12.2L3.4,12.2z"/>
</svg>
