<svg xmlns="http://www.w3.org/2000/svg" xmlns:xlink="http://www.w3.org/1999/xlink" preserveAspectRatio="xMidYMid" width="36" height="41" viewBox="0 0 36 41">
  <defs>
    <style>
      .cls-1 {
        fill: #fff;
        fill-rule: evenodd;
      }
    </style>
  </defs>
  <path d="M35.522,22.552 C35.528,22.443 35.505,22.332 35.451,22.240 C35.451,22.161 35.438,22.081 35.395,21.998 C33.263,17.933 23.048,2.877 20.069,0.487 C19.952,0.393 19.827,0.366 19.707,0.375 C17.533,-1.546 13.505,4.554 12.547,5.762 C10.356,8.523 8.085,11.142 5.726,13.767 C4.366,15.280 2.573,17.115 1.776,19.085 C1.109,19.920 0.532,20.663 0.090,21.263 C-0.110,21.536 0.038,21.796 0.278,21.911 C0.283,22.055 0.356,22.194 0.538,22.275 C2.390,23.115 3.646,24.791 5.287,25.936 C5.400,26.015 5.511,26.036 5.612,26.020 C5.821,26.089 6.074,26.051 6.234,25.830 C6.389,25.616 6.572,25.378 6.778,25.117 C6.844,28.180 6.988,31.242 6.945,34.309 C6.932,35.272 6.338,37.384 6.837,38.568 C6.766,38.701 6.742,38.860 6.818,39.028 C7.449,40.419 11.343,39.707 12.514,39.698 C17.685,39.660 22.981,40.401 28.121,39.705 C28.413,39.666 28.563,39.436 28.587,39.207 C29.636,38.521 29.481,37.090 29.288,35.328 C28.871,31.483 28.679,27.482 28.680,23.575 C29.227,24.415 29.725,25.154 30.115,25.677 C30.305,25.932 30.616,25.935 30.833,25.811 C30.883,25.800 30.932,25.791 30.984,25.763 C31.077,25.711 31.167,25.654 31.260,25.600 C32.519,25.870 35.258,23.886 35.830,23.374 C36.182,23.056 35.891,22.610 35.522,22.552 ZM27.906,11.278 C28.261,11.923 28.630,12.561 29.004,13.194 C28.572,12.491 28.021,11.742 27.419,10.973 C27.164,10.484 26.924,9.986 26.675,9.492 C27.167,10.116 27.600,10.722 27.906,11.278 ZM19.279,8.739 C19.442,9.059 19.615,9.373 19.784,9.690 C19.577,9.420 19.362,9.154 19.150,8.888 C19.193,8.839 19.235,8.788 19.279,8.739 ZM15.365,5.145 C15.402,5.121 15.441,5.099 15.479,5.076 C15.448,5.166 15.413,5.255 15.376,5.344 C15.284,5.437 15.186,5.524 15.096,5.620 C14.352,6.145 13.649,6.776 12.976,7.427 C13.759,6.655 14.555,5.891 15.365,5.145 ZM3.686,18.211 C4.619,17.050 5.583,15.924 6.600,14.841 C5.725,16.090 4.749,17.278 3.686,18.211 ZM5.827,20.195 C5.699,20.338 5.567,20.464 5.436,20.581 C5.459,20.555 5.483,20.530 5.506,20.503 C6.631,19.249 7.803,18.048 8.928,16.799 C9.165,16.620 9.399,16.438 9.631,16.257 C9.644,16.264 9.657,16.270 9.671,16.276 C8.437,17.621 7.047,18.838 5.827,20.195 ZM14.759,38.403 C14.909,38.070 15.048,37.732 15.181,37.392 C15.149,37.621 15.128,37.853 15.138,38.090 C15.144,38.225 15.213,38.345 15.311,38.435 C15.128,38.424 14.943,38.413 14.759,38.403 ZM16.052,33.072 C15.754,33.300 15.508,33.582 15.284,33.879 C15.564,33.337 15.950,32.936 16.498,32.783 C16.342,32.864 16.197,32.960 16.052,33.072 ZM17.271,38.510 C17.218,38.509 17.165,38.509 17.112,38.507 C17.014,38.505 16.912,38.498 16.813,38.496 C16.894,38.474 16.971,38.436 17.030,38.368 C17.206,38.166 17.364,37.955 17.512,37.739 C17.421,37.995 17.339,38.252 17.271,38.510 ZM16.919,33.708 C16.919,33.697 16.914,33.690 16.912,33.679 C17.010,33.617 17.122,33.576 17.240,33.545 C17.118,33.956 16.993,34.366 16.853,34.769 C16.916,34.423 16.950,34.072 16.919,33.708 ZM19.098,38.544 L18.625,38.535 C18.875,38.062 19.114,37.582 19.341,37.099 C19.262,37.531 19.177,37.961 19.098,38.393 C19.088,38.448 19.094,38.496 19.098,38.544 ZM19.670,33.652 C19.623,33.786 19.568,33.916 19.519,34.050 C19.523,33.735 19.492,33.416 19.422,33.091 C19.550,33.207 19.670,33.332 19.780,33.469 C19.735,33.520 19.695,33.579 19.670,33.652 ZM20.268,38.566 C20.215,38.565 20.161,38.564 20.108,38.563 C20.247,38.120 20.383,37.677 20.530,37.239 C20.538,37.733 20.468,38.207 20.268,38.566 ZM26.833,38.643 C26.822,38.644 26.814,38.649 26.803,38.650 C26.790,38.649 26.782,38.643 26.769,38.643 C25.329,38.640 23.891,38.623 22.451,38.602 C22.445,35.268 22.181,31.092 17.951,30.748 C15.571,30.554 14.282,32.199 13.616,34.180 C13.070,35.507 12.876,37.073 12.852,38.301 C11.654,38.248 10.459,38.230 9.292,38.336 C7.846,38.466 7.694,37.983 7.852,36.652 C8.018,35.264 7.975,33.833 7.975,32.438 C7.975,29.593 7.816,26.751 7.774,23.906 C11.404,19.624 16.861,11.615 18.296,9.891 C19.891,11.277 25.982,19.314 27.667,21.990 C27.637,24.695 27.801,27.387 27.985,30.086 C28.091,31.651 28.183,33.216 28.239,34.782 C28.283,36.008 29.216,38.569 26.833,38.643 ZM28.686,16.105 C28.589,15.908 28.494,15.712 28.397,15.516 C28.625,15.865 28.859,16.215 29.101,16.556 C29.130,16.629 29.161,16.707 29.194,16.793 C29.024,16.568 28.852,16.339 28.686,16.105 Z" class="cls-1"/>
</svg>
