<?xml version="1.0" encoding="utf-8"?>
<!-- Generator: Adobe Illustrator 19.0.0, SVG Export Plug-In . SVG Version: 6.00 Build 0)  -->
<svg version="1.1" id="Layer_1" xmlns="http://www.w3.org/2000/svg" xmlns:xlink="http://www.w3.org/1999/xlink" x="0px" y="0px"
	 viewBox="0 0 35.9 36.1" style="enable-background:new 0 0 35.9 36.1;" xml:space="preserve">
<style type="text/css">
	.st0{fill:#231F20;}
</style>
<path class="st0" d="M35.6,4.4c-1.4-1.7-4.5-2.3-7.8-2.5c-0.5-1.5-2-1.9-3.7-1.9c-1.7,0-3.2,1.8-3.7,3.4c-1.8,0.1-4,0.4-4,0.4
	L1.3,4.6C0.8,4.7,0.4,4.5,0.1,5C-0.1,5.4,0,6.5,0.2,7l5.3,10.9c0.5,0.7,1.3,0.8,1.4,0.8c0.5,0,1,0.7,1.3,0.3l9.3-12.1
	c1-0.1,2.1-0.2,3.2-0.3c0.4,0.7,1,0.6,1.7,0.9V11h-1.6c-3.2,0-5,1.9-5,5.1L16.5,34c0,0.9,0.7,1.6,1.6,1.6L33,36.1
	c0.9,0,1.6-0.7,1.6-1.6l-2.4-18.4c0-3.2-2.6-5.6-5.9-5.6L24.7,11l1-3.6c0.8-0.3,1.4-1.7,1.8-2.4c2.7,0.1,4.8,0.6,5.6,1.4
	c0.9,1,1.9,0.5,2.3,0.2C36,6.1,36.1,5.1,35.6,4.4L35.6,4.4z M29,16.1L31.4,33l-11.7-0.5l-0.7-16.3c0-1.5,0.3-1.9,1.8-1.9h5.4
	C27.8,14.2,29,14.7,29,16.1L29,16.1z M7.7,14.9L4.2,6.8L14,6.7L7.7,14.9L7.7,14.9z"/>
</svg>
