<svg xmlns="http://www.w3.org/2000/svg" xmlns:xlink="http://www.w3.org/1999/xlink" preserveAspectRatio="xMidYMid" width="43" height="43" viewBox="0 0 43 43">
  <defs>
    <style>
      .cls-1 {
        fill: #6f32be;
        fill-rule: evenodd;
      }
    </style>
  </defs>
  <path d="M42.767,21.768 C42.679,16.948 42.504,10.025 42.241,8.973 C41.979,7.921 38.651,3.014 37.513,1.962 C36.375,0.910 34.274,0.385 32.347,0.385 C30.421,0.297 14.836,-0.316 10.546,0.209 C6.256,0.735 4.592,2.400 3.454,3.364 C2.491,4.241 1.265,5.117 0.740,6.782 C0.214,8.447 0.127,13.267 0.039,18.350 C-0.048,23.521 0.039,29.305 0.039,31.759 C0.039,34.212 1.177,36.579 2.403,38.156 C3.629,39.733 6.168,41.399 7.657,41.924 C9.145,42.450 9.758,42.713 13.961,42.801 C18.251,42.888 21.140,43.064 27.006,42.976 C32.785,42.888 35.062,42.625 37.601,41.399 C40.140,40.172 42.066,37.104 42.679,35.439 C43.292,33.774 42.854,26.676 42.767,21.768 ZM31.297,40.084 C31.209,40.172 30.421,40.347 30.334,40.172 C30.159,39.996 29.020,37.543 29.020,37.455 C29.020,37.280 30.071,37.280 30.159,37.367 C30.246,37.455 31.384,39.996 31.297,40.084 ZM9.583,23.521 C9.670,24.572 10.283,27.990 12.560,29.831 C14.836,31.671 16.762,32.460 18.776,32.635 C20.790,32.810 23.504,32.372 24.993,31.583 C26.481,30.795 28.758,29.217 29.546,27.377 C30.334,25.536 30.859,23.170 30.859,21.943 C30.859,20.716 31.034,19.402 31.122,19.314 C31.209,19.227 36.988,18.964 37.163,19.227 C37.338,19.489 37.426,27.815 37.251,30.181 C37.075,32.547 37.075,34.475 36.200,35.089 C35.324,35.790 35.324,36.053 32.522,36.228 C29.721,36.403 25.693,36.841 21.403,36.841 C17.113,36.841 12.122,36.754 10.371,36.579 C8.620,36.403 7.219,35.877 7.044,35.176 C6.869,34.475 6.694,29.480 6.606,26.413 C6.518,23.345 6.606,20.191 6.781,19.928 C6.956,19.752 9.758,18.964 9.845,19.051 C9.758,19.227 9.495,22.469 9.583,23.521 ZM32.085,39.909 C31.910,39.821 30.859,37.280 30.859,37.280 C30.859,37.192 31.822,37.192 31.910,37.192 C31.997,37.192 33.398,39.383 33.311,39.471 C33.223,39.558 32.172,39.996 32.085,39.909 ZM34.799,39.120 C34.624,39.295 34.099,39.383 34.011,39.383 C33.923,39.383 32.873,37.192 32.785,37.104 C32.698,37.017 33.661,37.017 33.748,37.104 C34.011,37.280 34.974,39.032 34.799,39.120 ZM35.499,38.769 C35.324,38.682 34.624,37.192 34.536,37.104 C34.536,37.017 35.324,36.666 35.412,36.754 C35.587,36.841 36.287,38.156 36.287,38.156 C36.287,38.156 35.674,38.769 35.499,38.769 ZM36.900,37.543 C36.725,37.455 36.200,36.403 36.112,36.316 C36.112,36.228 36.900,35.702 36.900,35.702 C36.900,35.702 37.601,36.403 37.601,36.491 C37.601,36.579 37.075,37.630 36.900,37.543 ZM38.039,35.702 C37.863,35.790 37.338,34.913 37.338,34.826 C37.338,34.738 37.426,33.687 37.601,33.687 C37.688,33.687 38.564,34.651 38.651,34.738 C38.739,34.826 38.214,35.702 38.039,35.702 ZM39.527,23.258 C39.352,27.903 39.439,30.181 39.352,31.583 C39.177,32.985 38.914,33.774 38.827,33.774 C38.739,33.774 37.863,32.547 37.863,32.372 C37.863,32.197 37.951,28.604 38.039,25.799 C38.126,22.995 38.126,18.263 38.039,17.386 C37.951,16.510 37.688,16.159 37.163,15.984 C36.638,15.809 32.873,15.809 30.946,15.809 C29.020,15.809 28.495,15.809 28.320,15.984 C28.232,16.159 28.145,17.036 28.232,17.386 C28.320,17.737 28.582,18.438 28.582,18.525 C28.582,18.613 28.758,23.083 27.794,24.835 C26.919,26.588 26.043,28.428 22.891,29.568 C19.739,30.707 18.251,30.970 15.449,30.006 C12.647,29.042 11.509,27.201 11.071,25.975 C10.634,24.748 10.371,21.768 10.546,19.928 C10.721,18.087 10.809,17.737 11.159,17.386 C11.422,17.036 11.772,16.860 11.684,16.597 C11.597,16.335 11.334,16.247 10.371,15.984 C9.408,15.721 6.869,15.809 5.993,15.721 C5.117,15.633 4.505,15.809 4.242,16.597 C3.892,17.474 4.505,25.011 4.680,28.604 C4.855,32.197 5.030,34.125 5.905,35.352 C6.781,36.579 7.482,37.017 8.795,37.192 C10.108,37.367 12.560,37.718 15.011,37.630 C17.550,37.543 23.592,37.367 25.080,37.367 C26.569,37.367 28.407,37.280 28.495,37.280 C28.582,37.280 29.808,39.909 29.721,39.996 C29.633,40.084 28.933,40.172 28.758,40.084 C28.670,39.996 27.619,37.718 27.357,37.718 C27.094,37.718 26.656,37.893 26.656,38.068 C26.656,38.244 27.882,40.084 27.794,40.084 C27.707,40.084 26.656,40.172 26.481,40.084 C26.394,39.996 25.606,37.893 25.518,37.893 C25.430,37.893 24.993,37.893 24.905,38.068 C24.818,38.156 25.693,39.996 25.606,39.996 C25.518,39.996 24.818,40.084 24.730,39.909 C24.642,39.821 23.942,37.981 23.767,37.981 C23.592,37.981 23.242,38.156 23.242,38.244 C23.242,38.331 23.854,39.996 23.767,39.996 C23.679,39.996 22.716,40.084 22.629,39.996 C22.541,39.909 22.103,38.507 21.928,38.507 C21.753,38.507 21.228,38.682 21.315,38.857 C21.403,39.032 21.928,40.084 21.753,40.084 C21.578,40.084 16.762,40.347 12.735,40.172 C8.707,39.996 7.131,40.347 5.643,39.558 C4.154,38.769 2.141,36.754 1.528,35.176 C0.915,33.687 0.652,29.568 0.827,26.588 C1.002,23.608 0.652,19.402 0.915,15.283 C1.177,11.164 0.827,5.993 3.979,3.802 C4.680,3.277 6.431,2.050 7.657,1.699 C8.795,1.349 10.721,0.910 10.984,1.173 C11.246,1.436 11.509,2.751 11.772,2.751 C12.034,2.751 12.472,2.663 12.385,2.400 C12.297,2.137 11.772,1.173 11.947,1.173 C12.122,1.173 12.472,1.086 12.647,1.173 C12.735,1.261 14.048,2.839 14.398,3.802 C14.749,4.766 14.749,4.766 14.924,4.766 C15.099,4.766 15.274,4.591 15.274,4.328 C15.186,4.065 14.749,2.663 14.398,1.962 C13.961,1.261 13.698,0.910 13.873,0.910 C14.048,0.910 14.398,0.648 14.661,0.910 C14.924,1.173 16.062,2.839 16.500,3.627 C16.938,4.416 16.850,4.679 17.025,4.679 C17.200,4.679 17.463,4.591 17.375,4.153 C17.200,3.715 16.762,2.663 16.325,1.875 C15.887,1.086 15.624,0.735 15.712,0.735 C15.799,0.735 16.850,0.648 17.025,0.823 C17.200,0.998 18.601,3.802 19.126,4.854 C19.652,5.906 19.914,6.782 20.090,6.782 C20.265,6.782 20.440,6.695 20.352,6.519 C20.265,6.344 18.776,3.101 18.426,2.050 C18.076,0.998 17.901,0.735 18.076,0.735 C18.251,0.735 18.864,0.560 19.039,0.735 C19.214,0.910 20.352,3.364 21.228,5.029 C22.103,6.695 22.804,8.097 22.891,8.097 C22.979,8.097 23.154,7.921 23.066,7.658 C22.891,7.396 21.315,3.627 20.965,2.926 C20.615,2.225 20.002,0.735 20.177,0.735 C20.352,0.735 21.053,0.648 21.140,0.823 C21.228,0.998 22.891,3.715 23.592,5.555 C24.292,7.396 24.467,7.921 24.555,7.921 C24.642,7.921 24.730,7.746 24.730,7.658 C24.730,7.571 23.679,4.591 23.066,3.277 C22.454,1.962 22.016,0.998 22.191,0.998 C22.366,0.998 23.242,0.910 23.329,1.086 C23.417,1.261 25.255,5.029 25.693,5.993 C26.131,6.957 26.394,7.571 26.481,7.571 C26.569,7.571 26.744,7.396 26.656,7.045 C26.481,6.695 25.168,2.926 24.730,2.137 C24.292,1.349 24.205,0.998 24.380,0.998 C24.555,0.998 25.080,0.910 25.168,1.173 C25.255,1.436 27.707,6.870 27.794,6.870 C27.882,6.870 28.057,6.782 28.057,6.607 C28.057,6.432 26.569,2.663 26.306,1.962 C26.043,1.349 25.956,0.998 26.131,0.998 C26.306,0.998 27.182,0.998 27.182,1.086 C27.182,1.173 28.845,4.854 29.020,4.854 C29.195,4.854 29.283,4.766 29.283,4.504 C29.283,4.241 28.232,1.787 28.145,1.612 C28.057,1.349 27.882,1.173 28.057,1.086 C28.232,1.086 29.283,1.173 29.283,1.173 C29.283,1.173 30.159,3.014 30.334,3.014 C30.509,3.014 30.946,2.751 30.771,2.400 C30.596,2.050 30.071,0.998 30.246,0.998 C30.421,0.998 30.946,0.910 31.034,1.086 C31.122,1.261 32.085,3.364 32.347,3.364 C32.610,3.364 32.785,3.189 32.785,3.014 C32.698,2.839 31.734,0.998 31.822,0.998 C31.910,0.998 32.785,0.910 32.873,1.086 C33.048,1.261 33.748,3.014 34.099,3.014 C34.449,3.014 34.624,2.663 34.536,2.576 C34.449,2.400 33.748,1.086 33.923,1.086 C34.099,1.086 34.361,0.998 34.536,1.261 C34.711,1.524 35.850,4.241 35.937,4.241 C36.025,4.241 36.463,3.890 36.375,3.715 C36.287,3.540 35.324,1.349 35.499,1.261 C35.674,1.173 36.200,1.261 36.550,1.787 C36.900,2.313 37.075,3.014 37.251,3.014 C37.426,3.014 37.776,2.751 37.863,2.751 C37.951,2.751 39.439,4.241 39.527,6.957 C39.615,9.674 39.702,18.613 39.527,23.258 ZM8.357,3.452 C7.832,3.452 6.168,4.065 4.942,4.942 C3.717,5.818 2.841,7.571 2.753,8.184 C2.666,8.798 2.753,10.288 2.841,10.375 C3.016,10.550 3.454,10.463 3.629,10.375 C3.804,10.288 3.717,9.674 3.629,9.148 C3.541,8.535 3.979,7.571 4.592,6.782 C5.205,5.993 6.518,4.942 7.219,4.679 C7.919,4.416 8.620,4.328 8.795,4.153 C8.970,3.978 8.882,3.540 8.357,3.452 ZM28.145,11.865 C27.882,11.777 28.057,10.112 27.970,9.937 C27.882,9.762 27.006,9.674 27.006,9.849 C27.006,10.025 26.831,12.479 27.006,12.741 C27.182,13.004 28.670,13.092 29.020,13.092 C29.370,13.092 29.283,12.566 29.195,12.303 C29.195,11.953 28.407,11.953 28.145,11.865 ZM34.011,4.591 C33.486,4.504 29.808,4.591 29.370,4.766 C28.933,4.942 28.933,6.169 29.020,7.308 C29.108,8.447 29.108,10.901 29.283,11.076 C29.721,11.602 34.274,11.427 34.887,11.252 C35.499,11.076 35.237,7.220 35.149,6.256 C35.062,5.292 34.536,4.679 34.011,4.591 ZM34.099,10.200 C33.836,10.200 31.122,10.288 30.946,10.112 C30.771,9.937 30.859,7.133 30.946,6.870 C31.034,6.695 34.099,6.607 34.274,6.782 C34.449,6.957 34.361,10.200 34.099,10.200 ZM17.463,13.968 C17.901,13.881 17.726,13.267 17.463,13.180 C17.200,13.092 16.237,13.355 15.099,14.144 C13.873,14.932 13.085,16.072 12.910,16.597 C12.735,17.123 12.822,17.824 12.997,17.912 C12.997,17.912 13.435,18.000 13.698,18.000 C13.961,18.000 13.961,16.685 14.749,15.721 C15.449,14.669 17.025,14.056 17.463,13.968 ZM19.652,14.231 C17.200,14.056 15.537,15.721 15.011,16.335 C13.610,18.087 13.610,21.943 14.136,23.608 C14.661,25.273 17.463,26.588 18.514,26.763 C19.564,27.026 23.592,26.237 24.730,24.309 C25.868,22.381 25.518,19.402 24.905,17.474 C24.292,15.546 22.103,14.494 19.652,14.231 ZM24.030,23.959 C22.979,25.011 21.140,26.062 19.214,25.975 C17.288,25.887 15.537,24.923 15.799,22.732 C16.062,20.541 17.025,19.752 17.988,18.788 C18.601,18.175 20.265,17.123 21.578,17.123 C22.891,17.123 23.592,17.036 24.205,18.438 C24.818,19.840 24.993,22.907 24.030,23.959 Z" class="cls-1"/>
</svg>
