<svg xmlns="http://www.w3.org/2000/svg" xmlns:xlink="http://www.w3.org/1999/xlink" preserveAspectRatio="xMidYMid" width="50" height="39" viewBox="0 0 50 39">
  <defs>
    <style>
      .cls-1 {
        fill: #fff;
        fill-rule: evenodd;
      }
    </style>
  </defs>
  <path d="M49.066,9.522 L45.157,4.591 C44.867,4.225 44.431,4.013 43.970,4.013 C43.509,4.013 43.073,4.225 42.783,4.591 L38.874,9.522 C38.654,9.799 38.143,9.826 38.143,10.183 L38.143,15.041 L29.829,12.725 L30.220,8.187 C30.220,7.830 30.100,7.484 29.880,7.206 L26.518,1.317 C26.228,0.951 25.792,0.738 25.331,0.738 C24.871,0.738 24.434,0.951 24.145,1.317 L19.688,7.206 C19.468,7.484 19.348,7.830 19.348,8.187 L18.957,12.725 L11.347,12.725 L11.738,8.187 C11.738,7.830 11.618,7.484 11.398,7.206 L8.036,1.317 C7.746,0.951 7.310,0.739 6.849,0.739 C6.389,0.739 5.952,0.951 5.663,1.317 L1.206,7.206 C0.986,7.484 0.866,7.830 0.866,8.187 L0.475,14.284 L1.569,33.497 L1.569,37.031 C1.569,37.892 2.253,38.590 3.096,38.590 L10.368,38.590 C11.211,38.590 11.894,37.892 11.894,37.031 L11.894,35.055 L19.505,35.055 L19.505,37.031 C19.505,37.892 19.797,37.951 20.641,37.951 L29.241,37.552 C30.084,37.552 31.158,37.493 31.158,36.632 L31.158,34.656 L38.769,34.656 L38.769,36.632 C38.769,37.493 39.452,38.191 40.295,38.191 L48.114,38.191 C48.957,38.191 49.641,37.493 49.641,36.632 L49.641,33.097 L49.015,16.600 L49.015,10.183 C49.015,9.826 49.286,9.799 49.066,9.522 ZM41.197,10.735 L43.970,8.049 L45.962,10.735 L45.962,18.158 L46.587,31.539 L46.587,35.073 L41.822,35.073 L41.197,10.735 ZM22.167,34.834 L22.402,8.739 L24.784,5.733 L27.167,8.739 L26.932,34.834 L22.167,34.834 ZM4.623,35.473 L4.623,31.938 L3.529,15.843 L3.919,8.739 L6.302,5.733 L8.685,8.739 L8.841,35.473 L4.623,35.473 ZM11.347,15.843 L18.957,15.843 L19.505,31.938 L11.894,31.938 L11.347,15.843 ZM29.829,15.843 L38.143,18.159 L38.768,31.539 L31.158,31.539 L29.829,15.843 Z" class="cls-1"/>
</svg>
