<?xml version="1.0" encoding="utf-8"?>
<!-- Generator: Adobe Illustrator 19.0.0, SVG Export Plug-In . SVG Version: 6.00 Build 0)  -->
<svg version="1.1" id="Layer_1" xmlns="http://www.w3.org/2000/svg" xmlns:xlink="http://www.w3.org/1999/xlink" x="0px" y="0px"
	 viewBox="0 0 25 26" style="enable-background:new 0 0 25 26;" xml:space="preserve">
<path d="M24.3,8.8c0.1,0.1,0.2,0.2,0.2,0.4c0.4,3.5,0.7,7,0.3,10.5c-0.2,1.8-0.8,3.9-2.4,4.9c-1.8,1.2-4,1.4-6.2,1.3
	c-1.7,0.1-3.5-0.1-5.2-0.3c-0.5-0.1-1.1-0.1-1.7-0.1c-3.5,0-7.3,0-8.4-3.7c-0.4-1.2-0.5-2.5-0.4-3.7c0-1.4,0.1-2.8,0.2-4
	c0.1-0.9,0.2-1.8,0.4-2.7c0-0.4-0.1-0.7-0.2-1.1C0.4,10,0.1,9.6,0,8.9c-0.3-2.1,0.7-5.1,3.2-4.8c0,0,0,0,0.1,0
	c0-0.7-0.1-1.5-0.1-2.1c0-0.3,0.2-0.5,0.5-0.5c2.6,0,5.1-1,7.8-1C11.8,0.5,12,0.8,12,1c0,0,0,0,0,0.1c0-0.2,0.1-0.3,0.2-0.5
	c0-0.1,0.1-0.2,0.2-0.3c0-0.2,0.1-0.4,0.4-0.4c1.9,0.2,3.9,0,5.9,0.2c0.9,0.1,2.4,0,3.1,0.6c1.1,0.8,1.1,2.1,0.9,3.4c0,0,0,0,0.1,0
	c0.4,0,0.6,0,1.1,0.1c0.2,0,0.4,0.2,0.4,0.5c0.1,0.1,0.1,0.1,0.1,0.2C24.5,6.2,24.9,7.6,24.3,8.8C24.3,8.8,24.3,8.8,24.3,8.8
	L24.3,8.8z M11.1,1.6C9.1,2.1,6.7,3,4.7,2.5c-0.1,0-0.3,0-0.4,0c0,1.3,0.2,2.6,0,3.9c2.3-0.6,4.6-0.9,7-0.6c0.1,0,0.2,0,0.3,0
	C11.5,4.4,11.3,3,11.1,1.6L11.1,1.6z M18.7,1.5c-0.4,0-0.8-0.1-1.2-0.1c0.8,0.1,1.6,0.1,2.3,0.2C19.4,1.5,19,1.5,18.7,1.5L18.7,1.5z
	 M19.1,2.4c-1-0.1-2-0.2-3-0.3c-1-0.1-2.5-0.8-2.9,0.3C13,2.9,12.8,3.5,12.6,4c0,0.1-0.1,0.1-0.2,0.1c0,0.4,0.1,0.8,0.1,1.2
	c1.7,0.2,3.4,0.9,5.1,1.2c0.6,0.1,1.3,0.2,2,0.3c1.1,0,1.6-0.6,1.9-1.8c0-0.7,0.1-1.3,0.1-1.4C21.7,1.9,20.4,2.5,19.1,2.4L19.1,2.4z
	 M22.8,5.3c-0.1,0-0.2,0-0.2-0.1c0,0,0,0.1,0,0.1c-0.1,0.6-0.3,1.2-0.6,1.6c0,0.1,0,0.2,0,0.2c0,0.1-0.1,0.3-0.3,0.3
	c-0.1,0-0.2,0-0.2,0c-0.5,0.4-1,0.6-1.8,0.5c-2.2-0.1-5.1-0.4-7-1.4c-0.1,0.2-0.3,0.3-0.5,0.3C9.2,7.1,6.4,7,3.6,7.9
	C3.1,8.1,2.8,7.6,3,7.2c-0.1-0.1-0.1-0.2,0-0.3C3.2,6.4,3.2,5.7,3.3,5c-1,0.5-1.5,1.3-1.6,2.5C1.5,9.1,1.5,9.1,3.1,9
	C6.1,8.7,9,8.3,12,8.4c1.5,0,2.9,0.3,4.4,0.6c1,0,2,0,2.9,0c0.9,0,2.4,0,3-0.8C22.6,7.8,23.6,5.4,22.8,5.3L22.8,5.3z M23.1,9.8
	c-0.8,0.3-1.8,0.4-2.6,0.3c-4.7,0.4-9.4-0.2-14.1,0.3C5.2,10.6,3.4,11,2,10.8C2,11,1.9,11.1,1.9,11.3c0.6,2.7-0.3,5.3-0.3,8.1
	c0,0.4,0.1,0.7,0.1,1.1c0,0.1,0,0.3,0.1,0.4c0,0,0,0.1,0,0.1c0,0,0,0,0,0c0.8,3.2,4.3,3.2,7.3,3.4c0.8,0,1.5,0,2.2,0
	c1.3,0.1,2.9,0.3,4.5,0.4c3.1-0.2,5.9-1.3,6.8-4.9C23.5,16.6,23.2,13.2,23.1,9.8L23.1,9.8z M5.9,3.2c-0.2,0.1-0.5,0-0.7,0.1
	c0.1,0.1,0.1,0.3,0.2,0.4c0,0.1,0.1,0.2,0,0.3C5.3,4.1,5.2,4.1,5.1,4.1c0,0,0,0,0,0C5.1,4,5,4,5,3.9c0,0,0,0,0,0c0,0,0,0,0,0
	c0,0,0,0,0,0c0,0,0-0.1,0-0.1C4.9,3.6,4.8,3.5,4.8,3.3c0-0.1,0-0.2,0-0.2C5,2.9,5.6,2.8,5.9,2.9C6,3,6,3.1,5.9,3.2L5.9,3.2z M11,5.3
	c-0.4,0-0.8-0.2-1.1-0.4c-0.2-0.1,0-0.4,0.2-0.3c0.2,0.1,0.4,0.2,0.6,0.2c-0.1-0.3-0.1-0.7,0-0.9c0.1-0.1,0.2-0.1,0.3,0
	c0.1,0.2,0.1,0.3,0.1,0.5c0,0.2,0.1,0.4,0.1,0.6C11.3,5.2,11.1,5.3,11,5.3L11,5.3z M13.9,5.2c-0.3,0.3-0.8,0-1.2-0.1
	c-0.2,0-0.3-0.2-0.2-0.3c0.2-0.4,0.2-0.8,0.4-1.2c0.1-0.2,0.4,0,0.3,0.1c-0.1,0.3-0.1,0.6-0.2,1c0.1,0,0.2,0,0.3,0.1
	c0.2,0,0.4,0,0.5,0.2C13.9,5.1,14,5.2,13.9,5.2L13.9,5.2z M21.2,3.5c-0.2,0.2-0.4,0.1-0.7,0c-0.2-0.1-0.4-0.2-0.7-0.3
	c-0.1,0.2-0.1,0.4-0.3,0.5c-0.2,0.2-0.5-0.1-0.3-0.3c0.2-0.2,0.2-0.5,0.3-0.7c0.1-0.1,0.2-0.1,0.3-0.1C20.2,2.8,21.5,3.1,21.2,3.5
	L21.2,3.5z M4.6,22.4c-1,0.1-1.9-0.6-1.7-1.7c0-0.2,0.3-0.2,0.3,0c0.1,0.3,0.2,0.7,0.5,0.8c0.3,0.2,0.6,0.3,0.9,0.3
	C4.9,21.9,4.9,22.3,4.6,22.4L4.6,22.4z M21.5,12.1c-0.1-0.3-0.3-0.8-0.7-0.7c-0.3,0.1-0.4-0.3-0.1-0.4c0.7-0.3,1.2,0.3,1.3,1
	C22,12.3,21.6,12.5,21.5,12.1L21.5,12.1z"/>
</svg>
