<svg xmlns="http://www.w3.org/2000/svg" xmlns:xlink="http://www.w3.org/1999/xlink" preserveAspectRatio="xMidYMid" width="25" height="31" viewBox="0 0 25 31">
  <defs>
    <style>
      .cls-1 {
        fill: #fff;
        fill-rule: evenodd;
      }
    </style>
  </defs>
  <path d="M24.212,18.050 C24.204,18.156 23.919,18.322 23.765,18.318 C22.441,18.288 21.117,18.200 19.793,18.181 C19.063,18.170 18.333,18.268 17.603,18.300 C17.171,18.319 16.737,18.286 16.305,18.310 C16.096,18.322 15.877,18.377 15.688,18.470 C15.382,18.620 15.430,18.782 15.726,18.897 C15.358,19.006 15.163,19.279 15.151,19.660 C15.106,21.114 15.053,22.570 15.054,24.024 C15.054,25.156 15.126,26.288 15.172,27.419 C15.211,28.398 15.249,29.378 15.306,30.355 C15.324,30.674 15.201,30.813 14.914,30.815 C14.717,30.816 14.517,30.823 14.324,30.790 C13.095,30.575 11.873,30.689 10.657,30.881 C10.040,30.978 10.036,30.666 10.004,30.153 C9.931,28.966 9.731,27.789 9.631,26.603 C9.561,25.768 9.583,24.925 9.543,24.086 C9.515,23.512 9.412,22.941 9.409,22.368 C9.404,21.580 9.478,20.791 9.488,20.002 C9.494,19.494 9.495,18.973 9.389,18.485 C9.356,18.331 8.969,18.177 8.738,18.168 C8.013,18.139 7.285,18.209 6.560,18.184 C5.599,18.152 4.641,18.038 3.681,18.012 C2.936,17.992 2.188,18.058 1.442,18.075 C1.072,18.084 0.814,17.939 0.811,17.499 C0.803,16.294 0.799,15.088 0.781,13.882 C0.774,13.400 0.733,12.918 0.716,12.435 C0.703,12.036 0.789,11.758 1.278,11.767 C2.523,11.791 3.772,11.730 5.015,11.789 C5.989,11.834 6.962,11.978 7.928,12.133 C9.004,12.306 8.942,12.320 8.940,11.173 C8.938,9.780 9.056,8.387 9.155,6.996 C9.217,6.124 9.335,5.256 9.433,4.386 C9.528,3.543 9.627,2.700 9.730,1.858 C9.779,1.462 9.984,1.219 10.385,1.204 C10.775,1.188 11.174,1.120 11.554,1.180 C12.683,1.356 13.760,1.009 14.857,0.880 C15.618,0.790 16.004,1.095 15.998,1.876 C15.969,5.216 15.938,8.555 15.880,11.894 C15.870,12.448 16.108,12.507 16.532,12.475 C17.404,12.409 18.278,12.363 19.151,12.321 C20.486,12.256 21.822,12.197 23.158,12.146 C23.467,12.134 23.832,12.060 24.073,12.199 C24.301,12.330 24.541,12.709 24.532,12.970 C24.469,14.665 24.347,16.359 24.212,18.050 ZM3.745,12.961 L3.731,12.979 C3.736,12.974 3.741,12.972 3.746,12.967 C3.746,12.964 3.745,12.963 3.745,12.961 ZM15.728,18.898 C15.727,18.898 15.727,18.897 15.726,18.897 C15.730,18.896 15.731,18.893 15.734,18.892 L15.728,18.898 Z" class="cls-1"/>
</svg>
