<?xml version="1.0" encoding="utf-8"?>
<!-- Generator: Adobe Illustrator 19.0.0, SVG Export Plug-In . SVG Version: 6.00 Build 0)  -->
<svg version="1.1" id="Layer_1" xmlns="http://www.w3.org/2000/svg" xmlns:xlink="http://www.w3.org/1999/xlink" x="0px" y="0px"
	 viewBox="0 0 678 334" style="enable-background:new 0 0 678 334;" xml:space="preserve">
<path d="M676.4,142.4v32.3l-0.8,114.6l0.8,37.6l-0.8-8.6l-0.8,6.8l-1.6,3.8l-4.7,2.3l-5.5,0.8l-173-0.8l-294.4,0.8h-83l-29-1.5
	l-15.7,1.5H54.8H42.2H26.6l-8.6,0.8l-13.3-2.3l-1.6-8.3l-1.6-6.8l0.8-191.7L1.5,83L2.3,53L1.5,28.9l0.8-15l3.1-7.5l7.8-2.3l16.4-1.5
	l18-1.5l14.9,0.8l22.7,0.8h27.4l421.2-1.5l59.5,1.5l25.1-1.5h18.8L649,2.6l8.6,0.8l5.5,0.8l7.8,2.3l3.9,4.5l1.6,42.1l0.8,54.1
	L676.4,142.4L676.4,142.4z M678,35.9c-0.2,5.5-0.3,277-0.5,282.5c-0.1,3.7-1.3,7.2-2.5,10.6c-0.7,2.2-2.7,3.3-4.8,3.8
	c-2.5,0.6-5.2,1.2-7.8,1.2c-6.8,0-13.6-0.3-20.4-0.5c-1.4,0-2.8-0.1-4.2-0.1c-7.8,0-527.7,0.1-535.5-0.1c-6.3-0.1-12.6-0.6-19-0.7
	c-3-0.1-5.9,0.3-8.9,0.4c-5.7,0.2-11.4,0.3-17.2,0.4c-3,0.1-6.1,0.2-9.1,0.3c-0.5,0-0.9,0.1-1.4,0c-8.6-0.7-17.2,0.5-25.9,0.5
	c-3.8,0-7.5,0.1-11.3-0.8c-1-0.2-2-0.4-2.9-0.7c-2.3-0.7-3.7-2.2-4.4-4.5c-1.5-4.6-2.3-9.3-2.3-14.2C0.2,305.3,0,30.7,0,22.2
	c0-2.9,0.3-5.8,0.8-8.7c0.3-1.7,1-3.4,1.7-5c0.5-1.1,1.1-2,2-2.8c1-0.9,2.2-1.5,3.7-1.8c2.7-0.6,5.4-1.2,8.1-1.5
	C24,1.6,31.8,0.7,39.6,0.2c4.5-0.3,9-0.1,13.5,0c3.2,0.1,6.3,0.2,9.5,0.4c1.7,0.1,3.5,0.3,5.2,0.4c2.5,0.2,5,0.4,7.6,0.2
	c5-0.3,10-0.4,14.9,0c3,0.2,5.9-0.1,8.8-0.4c1.7-0.1,3.4-0.3,5-0.4C114.5,0,636.8-0.4,647,0.7c6.6,0.7,13.1,1.6,19.6,2.4
	c5.5,0.6,8.9,3.5,10,8.7c0.5,2.3,1,4.7,1.1,7.1c0.2,5.7,0.1,11.3,0.1,17C677.9,35.9,677.9,35.9,678,35.9L678,35.9z M674.6,17.6
	c-0.2-2.3-0.9-4.6-1.7-6.8c-0.8-2.4-2.8-3.8-5.4-4.2c-1.6-0.3-3.2-0.6-4.8-0.8c-4.7-0.6-9.5-1.2-14.2-1.7
	c-7.6-0.8-527.3-1.3-535-0.8C107.7,3.6,102,4,96.3,4.1c-4.4,0.1-8.8,0-13.1,0c-5.4,0-10.8,0-16.2,0c-3.5-0.1-7-0.1-10.5-0.5
	c-5.2-0.5-10.4-0.8-15.5-0.4c-7,0.5-14.1,1.2-21.1,1.9c-3.1,0.3-6.2,1-9.4,1.5C7.7,7,5.7,8.4,4.9,10.9c-0.8,2.3-1.5,4.6-1.7,7
	c-0.4,5.5-0.5,11-0.6,15C2.8,38.7,3,309,3.1,313.3c0.1,4.6,0.8,9,2.2,13.4c0.6,1.8,1.6,2.8,3.4,3.2c2.2,0.4,4.4,1,6.6,1
	c6.1,0,12.1-0.2,18.2-0.4c2.5-0.1,5-0.2,7.5-0.3c8.1-0.1,16.3-0.2,24.5-0.4c6.5-0.1,13-0.5,19.6-0.5c5,0,10.1,0.4,15.2,0.5
	c8.4,0.2,528.8,0.3,537.1,0.4c2,0,3.9,0.1,5.9,0.1c6.4,0.2,12.8,0.5,19.2,0.5c2.4,0,4.8-0.6,7.2-1.1c1.2-0.2,2.3-0.8,2.7-2.1
	c0.7-2.8,1.8-5.5,2.1-8.3c0.5-6.5,0.8-279.1,0.9-285.6C675.1,28.4,675,23,674.6,17.6L674.6,17.6z"/>
</svg>
