<svg xmlns="http://www.w3.org/2000/svg" xmlns:xlink="http://www.w3.org/1999/xlink" preserveAspectRatio="xMidYMid" width="86" height="86" viewBox="0 0 86 86">
  <defs>
    <style>
      .cls-1 {
        fill: #fff;
        fill-rule: evenodd;
      }
    </style>
  </defs>
  <path d="M76.350,70.214 C62.288,86.411 37.087,91.470 18.752,79.164 C0.793,67.110 -3.148,45.535 5.134,26.205 C12.818,8.272 30.417,-4.661 50.147,1.592 C57.555,2.474 64.721,4.468 70.469,9.411 C87.929,24.427 91.722,52.510 76.350,70.214 ZM66.163,13.689 C61.970,10.410 57.055,8.771 51.909,7.910 C51.358,8.135 50.699,8.170 49.948,7.897 C49.493,7.732 49.041,7.592 48.589,7.452 C43.819,6.939 38.938,6.931 34.318,6.795 C34.298,6.795 34.282,6.789 34.263,6.789 C21.422,9.729 11.597,22.016 8.350,35.631 C6.238,44.488 6.198,54.640 10.910,62.748 C16.181,71.816 26.273,78.176 36.675,79.647 C57.259,82.558 79.558,67.073 80.062,45.479 C80.330,34.022 75.440,20.943 66.163,13.689 ZM56.290,59.633 C48.278,51.723 37.942,52.512 29.921,59.965 C26.775,62.889 22.036,58.200 25.191,55.267 C35.864,45.348 50.395,44.445 61.018,54.934 C64.081,57.958 59.350,62.656 56.290,59.633 ZM54.641,39.336 C50.329,39.336 50.329,32.691 54.641,32.691 C58.953,32.691 58.953,39.336 54.641,39.336 ZM31.568,39.005 C27.255,39.005 27.255,32.358 31.568,32.358 C35.880,32.358 35.880,39.005 31.568,39.005 Z" class="cls-1"/>
</svg>
