<?xml version="1.0" encoding="utf-8"?>
<!-- Generator: Adobe Illustrator 19.0.0, SVG Export Plug-In . SVG Version: 6.00 Build 0)  -->
<svg version="1.1" id="Layer_1" xmlns="http://www.w3.org/2000/svg" xmlns:xlink="http://www.w3.org/1999/xlink" x="0px" y="0px"
	 viewBox="-249.5 342.8 90.3 82.8" style="enable-background:new -249.5 342.8 90.3 82.8;" xml:space="preserve">
<path d="M-237,351.4C-237,351.4-237,351.5-237,351.4c-15.1,8.8-16.1,28.4-5.7,41.2c8.4,10.4,22.3,12.9,34.7,9.7
	c2.1,3.8,6.5,6.3,9.8,9l16,12.9c2.1,1.7,4.6,1.8,6.7,0c4.4-3.9,9-7.4,13.9-10.7c2.3-1.6,3.5-5.4,1-7.5c-8.4-6.8-16.1-14.3-23-22.6
	c5-11,2.9-24.3-7.6-33.1C-204.4,339.4-224.2,340.7-237,351.4z M-171.7,409.1c-2.4,1.8-4.8,3.7-7.2,5.6l-8.2-6.6
	c-1.9-1.6-3.9-3.1-5.8-4.7c-1.3-1-4.4-2.8-5.9-4.5c1.7-0.9,3.3-1.8,4.8-2.9c1.9-1.3,3.5-2.8,5-4.4
	C-183.7,397.9-177.9,403.7-171.7,409.1z M-200.3,355.6c9.3,5.1,11.5,14.3,8.5,22.4c-1.8,0.9-3.2,3.1-2.9,5.4
	c-1.1,1.5-2.4,2.9-3.9,4.2c-9.8,8.4-25.9,9-35.4,0.2c-8.8-8.1-8.2-22.8,2.7-28.6c0.8-0.4,1.3-0.9,1.7-1.5
	C-221.4,351.1-209.5,350.5-200.3,355.6z"/>
</svg>
