<?xml version="1.0" encoding="utf-8"?>
<!-- Generator: Adobe Illustrator 19.0.0, SVG Export Plug-In . SVG Version: 6.00 Build 0)  -->
<svg version="1.1" id="Layer_1" xmlns="http://www.w3.org/2000/svg" xmlns:xlink="http://www.w3.org/1999/xlink" x="0px" y="0px"
	 viewBox="-249.9 339.9 90.1 88.1" style="enable-background:new -249.9 339.9 90.1 88.1;" xml:space="preserve">
<path d="M-171.3,340.5c-11.2-1.3-23.2-0.7-34,2.7c-1.3,0.4-2.1,1.7-1.7,3.1c1.8,7.8,6.4,17.3,4.1,25.4c-0.8,2.8-2.8,3.8-5.7,3.8
	c-4.8,0-9.6,0-14.4,0.4c-12,1.2-26.1,9.5-26.9,23.1c-0.3,4,0.8,7,2.6,9.2v0.1c2.1,5,5.3,7.9,10.2,9.9c3,1.2,6.3,1.7,9.4,2.5
	c4.1,1,7.3,3.2,10.9,5.3c5.8,3.5,12.2,1.6,18-0.7c7.2-2.9,14.7-5.5,21.7-8.8c4.6-2.2,4.3-9.9,5.3-14.3c0.8-3.3,0.9-6.7,2.5-9.7
	c1.5-2.8,3.8-3,6.3-4.1c4-1.8,2.3-10.4,2.2-13.6c-0.2-6.7-0.3-13.3-0.5-20c0.3-0.4,0.5-0.8,0.7-1.2
	C-157.2,346.5-165.4,341.2-171.3,340.5z M-179.1,345c3.3,0.1,6.6,0.1,9.8,0.9c2.1,0.6,6,3.4,3.7,6.2c-1,1.3-3.2,2.1-4.6,2.7
	c-0.7,0.3-1.4,0.6-2.1,0.9c-4.4,0.4-8.6,0-13-0.9c-3.7-0.9-14.5-2.7-14.7-7.9C-193.2,345.3-186.2,344.9-179.1,345z M-180.2,383.1
	c-0.1,0-0.3,0-0.4,0.1c-0.1,0-0.2,0-0.3,0c-1,0.1-1.9,0.4-2.7,0.6c-4.9-3.1-10.2-5.9-15.6-8.3c1.1-2.1,1.4-4.6,1.6-6.9
	c0.4-4.4-0.6-8.8-1.8-13.2c1.2,0.6,2.5,1.1,3.9,1.6c5.9,2,11.8,3.5,17.9,3.8c-0.1,0.2-0.1,0.5-0.1,0.8c-0.4,3.1-0.4,6.3-0.5,9.4
	C-178,373.4-175.9,382.7-180.2,383.1z M-239.5,388.5c5.7-6.1,14-7.7,22-8c4.8-0.2,10.3,1,14.6-1.2c5,2.1,10,4.7,14.7,7.5
	c-1.7,1.6-3.2,3.6-5.2,5.6c-5.1,5-13.1,8.4-19.4,11.4c-7.8,3.7-16.6,5.7-25.2,4.1C-248.9,405.8-244.8,394.2-239.5,388.5z
	 M-167.7,384.5c-8.2,2.3-8.7,15.1-10.1,21.6c-0.8,3.9-0.7,5.5-4.8,7.2c-2.9,1.2-5.9,2.4-8.8,3.6c-6.2,2.5-13.8,7.2-20.7,5.8
	c-2.7-0.5-5.3-2.9-7.6-4.3c-2.1-1.2-4.4-1.9-6.7-2.5c-3.1-0.9-6.5-1.4-9.5-2.6c5.7,0.5,12-0.4,16.7-1.7c8.1-2.3,15.4-6.7,22.6-10.9
	c2.8-1.6,5.3-3.4,7.6-5.7c3.2-3.1,4.4-6.1,9.2-6.9c9.5-1.2,6.6-12,6.6-19c0-2.2,0.2-4.4,0.3-6.5c0-1,0.8-1.6,1.8-2.1l0,0
	c1-0.5,2.3-0.8,3-1.1c0.5-0.2,1.1-0.5,1.6-0.7c0.1,3.8,0.2,7.6,0.3,11.4c0.1,2.6,0.1,5.3,0.2,7.9
	C-165.7,380.4-164.6,383.7-167.7,384.5z M-181.1,346.6c3.2,0,3.2,5,0,5C-184.4,351.6-184.4,346.6-181.1,346.6z M-227.6,406
	c10.3-1,19.9-5.8,27.6-12.8c0.5-0.5,0.7-1,0.8-1.5c3.3-9.2-10.9-9.8-16.5-9.4c-9,0.7-20.2,3.2-25.3,11.4c-1.6,2.6-2,7.7,0.6,10
	C-236.7,406.9-232.2,406.5-227.6,406z M-237,397c1.2-5.6,11-7.9,15.6-8.9c2-0.4,17.9-2.8,17.4,2c-4.4,3.9-9.3,6.8-14.9,8.8
	C-221.6,399.9-238.7,404.8-237,397z"/>
</svg>
