<?xml version="1.0" encoding="utf-8"?>
<!-- Generator: Adobe Illustrator 19.0.0, SVG Export Plug-In . SVG Version: 6.00 Build 0)  -->
<svg version="1.1" id="Layer_1" xmlns="http://www.w3.org/2000/svg" xmlns:xlink="http://www.w3.org/1999/xlink" x="0px" y="0px"
	 viewBox="-250 347 89.9 73.9" style="enable-background:new -250 347 89.9 73.9;" xml:space="preserve">
<path d="M-246.1,359.4c0.3,0.1,0.6,0.2,1,0.2c7.5,0,17.1,4.7,22.5,10.3c-1.1,7,0,14,0.2,21v0.1c-1.6,11.3,7.4,21.2,19.2,17.7
	c0.2,0,0.4-0.1,0.6-0.2c0.2-0.1,0.4-0.1,0.5-0.2c11.7-5.1,22-15.6,27.6-26.9c2.2-4.4,3.5-11.2-0.3-15.2c-0.4-0.4-0.8-0.8-1.3-1.1
	c-0.3-0.4-0.7-0.7-1.2-0.9c-2.8-1.8-6.1-2.3-9.4-2.2c-9-1.4-18.1-1.3-27.2-1.2c-6.7-10-20.6-14.7-32.2-13.6
	c-1.1,0.1-1.8,0.7-2.1,1.5c-0.2,0.2-0.4,0.4-0.6,0.7c-1.9,3-1.4,6.7,0.8,9.4C-247.5,359.3-246.8,359.5-246.1,359.4z M-204,403.7
	c-4.6,1.5-9.1,0.8-11.8-3.4c-3.3-5-1.4-11.5,1.1-16.3c4.5-8.5,13.2-14.2,22.4-16.4c4.5-1.1,12.4-1.9,14.6,3.4
	c2,4.7-2.7,10.9-5.2,14.5C-188,393-195.6,400.2-204,403.7z M-217.4,364.6c0.4,0.8,1.3,1.2,2.2,1.2c4.3-0.1,8.6-0.1,12.9-0.1
	c-6.4,3.1-11.9,8.1-15.6,14.1c-0.1-1.8-0.1-3.5,0-5.3c0-1.9,1-4.3,0.5-6.1c-1.1-4.1-8.3-7.2-11.6-9c-4.9-2.7-10-4.8-15.7-4.9
	c-0.4-0.8-0.2-1.8,0.2-2.5C-234.6,351.7-222.6,355.7-217.4,364.6z M-211.8,397.8c-3.2,0-3.2-5,0-5S-208.6,397.8-211.8,397.8z
	 M-211.8,386.3c3.2,0,3.2,5,0,5S-215,386.3-211.8,386.3z M-208.4,380.2c3.2,0,3.2,5,0,5S-211.6,380.2-208.4,380.2z M-202.4,380.8
	c-3.2,0-3.2-5,0-5S-199.2,380.8-202.4,380.8z M-196.5,372c3.2,0,3.2,5,0,5C-199.7,377-199.7,372-196.5,372z M-189.8,374
	c-3.2,0-3.2-5,0-5C-186.5,369-186.5,374-189.8,374z M-182.7,375c-3.2,0-3.2-5,0-5S-179.5,375-182.7,375z M-188.7,388
	c-3.2,0-3.2-5,0-5C-185.4,383-185.4,388-188.7,388z M-194.4,394.9c-3.2,0-3.2-5,0-5S-191.2,394.9-194.4,394.9z M-200.7,399.4
	c-3.2,0-3.2-5,0-5C-197.5,394.4-197.5,399.4-200.7,399.4z M-207.1,401.9c-3.2,0-3.2-5,0-5S-203.9,401.9-207.1,401.9z M-183.8,381.9
	c-3.2,0-3.2-5,0-5S-180.6,381.9-183.8,381.9z M-182.5,415.6c-2.2-1.9-4.5-3.9-6.7-5.8c-2.5-2.1,1.1-5.6,3.5-3.5
	c2.2,1.9,4.5,3.9,6.7,5.8C-176.6,414.2-180.1,417.8-182.5,415.6z M-174.7,409.7c-3.2-2.2-6.3-4.5-9.3-6.9c-2.5-2,1-5.5,3.5-3.5
	c2.7,2.2,5.4,4.2,8.3,6.1C-169.5,407.1-172,411.5-174.7,409.7z M-164.4,404.4c-4.3-2.8-8.6-5.4-13.1-7.9c-2.8-1.6-0.3-5.9,2.5-4.3
	c4.5,2.5,8.8,5.1,13.1,7.9C-159.2,401.8-161.7,406.2-164.4,404.4z M-170.3,384.3c3.2,1,6.3,2.4,9,4.5c1.1,0.8,1.7,2.1,0.9,3.4
	c-0.6,1.1-2.3,1.7-3.4,0.9c-2.3-1.9-4.9-3.2-7.8-4C-174.7,388.3-173.4,383.4-170.3,384.3z M-191.1,410.4c0.9,2.4,2.1,4.7,3.5,6.9
	c1.7,2.7-2.6,5.2-4.3,2.5c-1.6-2.6-2.9-5.3-4-8.1c-0.5-1.3,0.5-2.8,1.7-3.1C-192.7,408.2-191.6,409-191.1,410.4z"/>
</svg>
