<?xml version="1.0" encoding="utf-8"?>
<!-- Generator: Adobe Illustrator 19.0.0, SVG Export Plug-In . SVG Version: 6.00 Build 0)  -->
<svg version="1.1" id="Isolation_Mode" xmlns="http://www.w3.org/2000/svg" xmlns:xlink="http://www.w3.org/1999/xlink" x="0px"
	 y="0px" viewBox="0 0 45.5 42.6" style="enable-background:new 0 0 45.5 42.6;" xml:space="preserve">
<style type="text/css">
	.st0{fill-rule:evenodd;clip-rule:evenodd;}
</style>
<path class="st0" d="M19.9,24.9c0.3-0.5,0.6-0.9,0.9-1.3c1.1-1.7,2.3-3.5,3.3-5.2c1.1-1.8,2.5-3.4,4-5c0.9-0.9,1.9-1.6,3-2
	c0.6-0.3,1.3-0.4,1.9-0.4c0.7,0,1.2,0.8,0.8,1.4c-0.4,0.7-0.9,1.3-1.5,1.8c-1.7,1.7-3.1,3.5-4.3,5.7c-1.6,3-3.2,5.9-4.8,8.8
	c-0.4,0.8-1,1.5-1.6,2.2c-1.5,1.5-3.6,1.1-4.4-0.8c-0.3-0.7-0.4-1.4-0.7-2.1c-0.2-0.4-0.3-0.9-0.6-1.3c-1.2-1.2-2.4-2.5-3.6-3.6
	c-0.8-0.8-1-1.6-0.5-2.4c0.5-0.8,1.6-1.1,2.6-0.6c0.4,0.2,0.7,0.5,1,0.7c1.2,1.1,2.4,2.2,3.6,3.4C19.3,24.3,19.5,24.6,19.9,24.9z
	 M23.8,42.5c11.6,0.9,21.9-9.1,21.7-19.5C45.4,13.7,37-0.6,21,0C8.6,0.5,0,9.2,0,22.2C-0.2,36,11.5,41.5,23.8,42.5z M20.9,2.3
	c15.3-0.3,21.5,10.4,22.4,20.5c0.9,9.4-9.1,17.8-20.1,17.9C11.7,40.7,2.1,32.3,2.1,22.3C2.1,10.4,9.8,2.5,20.9,2.3z"/>
</svg>
