<?xml version="1.0" encoding="utf-8"?>
<!-- Generator: Adobe Illustrator 19.0.0, SVG Export Plug-In . SVG Version: 6.00 Build 0)  -->
<svg version="1.1" id="Layer_1" xmlns="http://www.w3.org/2000/svg" xmlns:xlink="http://www.w3.org/1999/xlink" x="0px" y="0px"
	 viewBox="0 0 500 55.8" style="enable-background:new 0 0 500 55.8;" xml:space="preserve">
<path d="M38.6,53.6c-5.5-0.1-10.8-0.2-16.2-0.3c-5.9-0.1-12.3,0.8-17.4-2.3c-3.9-2.4-3.8-6.2-4.2-9.5C0.5,37.8,0.5,15.9,1,12.1
	c0.4-3.9,0.3-7.4,5.4-9.5c4.1-1.7,10.2-1.8,15-1.7c6.3,0.1,12.7,0.6,19,0.9c4.1,0.2,3.8,0.5,7.5,0.3l5,51.6
	C48,53.7,43.3,53.7,38.6,53.6L38.6,53.6z M52.8,54.7c-10.6-0.2-21.3-0.5-31.9-0.5c-4.1,0-8.2,0.4-12.3-0.8c-2.8-0.8-6.2-2.2-7.5-6.8
	C-0.2,42.2-0.2,18,0.3,13.4C0.5,10,0.8,6.5,2.5,4.3C4.8,1.4,8.2,0.9,11,0.5c4.2-0.6,8.4-0.5,12.6-0.4c8,0.3,16.2,1.6,24.2,1.1
	c0.7,0,0.7,1.9,0,1.9C40,3.5,32.2,2.3,24.5,2c-3.6-0.1-7.3-0.2-10.9,0.1C10.4,2.3,5.9,2.4,3.3,5.7c-2,2.5-2.1,27.1-2.1,30.9
	c0,6.1,0.6,11.4,4.4,13.7c3.5,2.1,7.4,2.2,11.1,2.1c3.9,0,7.7,0,11.6,0.1c8.1,0.2,16.3,0.2,24.4,0.4C53.5,52.9,53.5,54.7,52.8,54.7
	L52.8,54.7z M499.1,43.5c-0.4,3.3-0.5,7.1-4.4,9.3c-5.1,2.9-411.4,1.7-417.3,1.6c-5.3-0.1-10.6-0.2-16.2-0.3
	c-4.7-0.1-9.4-0.3-14.1-0.4l0.7-51.5c4.3-0.1,8.2,0.2,12.3,0.1c6.3,0,12.7-0.2,19-0.1c4.7,0.1,410.7,0.4,414.8,2.3
	c5.1,2.2,4.9,5.7,5.2,9.7C499.5,18,499.5,39.9,499.1,43.5L499.1,43.5z M500,38c0,3.9-0.3,9.5-1.9,12.6c-0.1,0.2-0.9,0.4-2.2,0.6
	c0.7-0.7,1.3-1.6,1.7-2.7c1.7-4.5,1.4-29.7,1-34.7c-0.4-5-1.8-7-4.8-8.4C486.8,2.2,79,3.1,71.9,3.1c-8,0-16-0.1-24.1,0
	c-0.7,0-0.7-1.9,0-1.9C58.4,1,69.1,1,79.8,1.3c3.8,0.1,407.6,0.3,411.4,1.3c2.5,0.7,5.9,1.6,7.5,5.4C500,11,500,34.5,500,38L500,38z
	 M414.9,53.8c39.7-0.6,72.4-1.5,81-2.7c-2.7,2.7-6.9,2.7-9.6,2.7C485.3,53.9,456.6,53.9,414.9,53.8L414.9,53.8z M75.7,55.4
	c-9.5-0.2-19.1-0.5-28.6-0.8c-0.7,0-0.7-1.9,0-1.9c9.3,0.2,18.5,0.5,27.8,0.7c2.8,0.1,222.9,0.3,340,0.4
	c-77.5,1.2-181.4,1.6-183.4,1.8C227.2,56.1,80.1,55.5,75.7,55.4L75.7,55.4z M488.2,54.6l-7.8-0.8l0.9-4.6h0.5l10.9,3.8L488.2,54.6
	L488.2,54.6z"/>
</svg>
