<svg xmlns="http://www.w3.org/2000/svg" xmlns:xlink="http://www.w3.org/1999/xlink" preserveAspectRatio="xMidYMid" width="46" height="41" viewBox="0 0 46 41">
  <defs>
    <style>
      .cls-1 {
        fill: #e92818;
        fill-rule: evenodd;
      }
    </style>
  </defs>
  <path d="M44.675,9.571 C44.675,9.571 45.287,8.536 45.388,7.915 C45.490,7.294 45.490,6.570 45.185,6.259 C44.879,5.949 43.656,6.466 42.637,6.777 C41.618,7.087 39.681,7.398 39.681,7.398 C39.681,7.398 38.458,3.673 36.420,2.224 C34.381,0.775 31.833,0.775 29.591,1.293 C27.349,1.810 24.597,3.259 23.374,4.811 C22.151,6.363 21.030,9.364 20.622,10.605 C20.214,11.847 19.501,13.917 18.584,14.123 C17.768,14.330 16.138,13.710 14.711,12.778 C13.386,11.951 9.819,8.950 7.984,7.294 C6.252,5.639 3.704,2.741 2.888,2.948 C2.073,3.155 1.156,6.156 1.156,8.329 C1.156,10.502 2.990,12.571 2.990,12.571 C2.277,15.365 2.684,17.331 3.398,18.883 C4.111,20.332 5.742,21.367 5.742,21.367 C5.538,22.298 5.640,23.540 5.946,24.574 C6.252,25.609 8.086,26.954 8.086,26.954 C8.086,26.954 7.067,27.782 5.334,28.299 C3.704,28.817 0.442,28.299 0.136,28.299 C-0.169,28.403 0.136,32.749 0.136,33.370 C0.136,33.990 0.544,34.508 1.156,34.922 C1.665,35.336 6.150,37.612 12.367,39.267 C18.584,40.923 23.476,39.474 27.145,37.819 C30.814,36.163 34.789,31.197 37.439,27.161 C39.987,23.126 41.719,17.331 41.719,17.331 C41.719,17.331 42.637,16.814 44.063,15.779 C45.388,14.744 45.898,12.985 46.000,11.847 C45.796,10.502 44.675,9.571 44.675,9.571 ZM41.618,11.951 C42.025,11.951 43.758,10.916 43.962,11.123 C44.165,11.330 43.452,12.675 42.229,13.399 C41.006,14.123 39.987,14.537 39.783,14.434 C39.579,14.330 38.662,12.675 38.560,12.675 C38.356,12.675 37.948,13.089 38.050,13.296 C38.152,13.503 39.171,14.848 39.069,15.055 C38.968,15.262 38.866,15.365 38.764,15.262 C38.662,15.158 37.643,13.089 37.439,12.985 C37.133,12.882 36.827,13.503 36.929,13.813 C37.133,14.123 38.356,15.779 38.356,15.986 C38.356,16.296 38.050,17.435 37.948,17.228 C37.846,17.021 36.318,14.123 36.114,14.123 C35.910,14.123 35.604,14.848 35.706,15.055 C35.808,15.262 37.643,17.952 37.643,18.262 C37.643,18.573 37.133,19.711 36.929,19.504 C36.725,19.297 35.197,15.779 34.993,15.779 C34.789,15.779 34.381,16.400 34.381,16.503 C34.381,16.710 36.420,20.125 36.522,20.435 C36.623,20.746 36.114,22.194 35.910,22.091 C35.706,21.987 34.075,17.745 33.872,17.745 C33.668,17.745 33.362,18.366 33.464,18.573 C33.566,18.883 35.502,22.608 35.502,22.919 C35.502,23.229 35.197,23.746 35.095,23.746 C34.993,23.746 32.954,18.469 32.751,18.469 C32.547,18.469 32.241,18.987 32.445,19.608 C32.649,20.228 34.687,24.160 34.789,24.471 C34.789,24.781 34.279,25.506 34.177,25.402 C34.075,25.299 31.935,20.332 31.731,20.332 C31.527,20.332 31.222,21.160 31.426,21.470 C31.629,21.780 33.872,25.816 33.872,25.919 C33.872,26.023 33.260,26.954 33.158,26.954 C32.954,26.851 31.120,22.298 30.916,22.298 C30.712,22.298 30.304,22.815 30.508,23.333 C30.712,23.850 32.751,27.368 32.649,27.575 C32.547,27.782 32.037,28.610 31.935,28.403 C31.833,28.196 29.795,23.540 29.591,23.540 C29.387,23.540 28.776,24.057 28.980,24.471 C29.183,24.885 31.426,29.024 31.324,29.127 C31.222,29.231 30.406,30.265 30.304,30.265 C30.203,30.162 27.960,25.402 27.756,25.506 C27.553,25.609 27.145,25.919 27.349,26.333 C27.553,26.747 29.795,30.679 29.693,30.886 C29.591,31.093 29.081,31.507 28.878,31.403 C28.674,31.300 26.432,26.540 26.228,26.540 C26.024,26.540 25.514,27.265 25.616,27.472 C25.820,27.782 28.266,31.610 28.164,31.817 C28.062,32.024 27.247,32.645 27.145,32.542 C27.043,32.438 25.107,28.506 24.801,28.506 C24.393,28.506 24.087,29.127 24.291,29.334 C24.495,29.541 26.432,32.852 26.432,32.852 C26.432,32.852 25.514,33.473 25.310,33.266 C25.107,33.059 23.578,29.438 23.476,29.438 C23.374,29.438 22.661,29.851 22.966,30.265 C23.272,30.679 24.801,33.473 24.699,33.576 C24.495,33.680 24.087,33.990 23.884,33.783 C23.680,33.576 22.151,29.955 21.947,29.955 C21.743,29.955 21.132,30.265 21.336,30.472 C21.539,30.679 23.170,34.094 23.068,34.197 C22.966,34.301 21.947,34.611 21.845,34.404 C21.743,34.301 20.316,31.197 20.113,31.197 C19.909,31.197 19.603,31.610 19.705,31.714 C19.807,31.921 21.234,34.508 21.132,34.508 C21.030,34.611 20.011,34.715 19.909,34.611 C19.807,34.508 18.482,31.403 18.278,31.300 C18.074,31.197 17.565,31.714 17.667,31.921 C17.768,32.128 18.991,34.508 18.788,34.611 C18.584,34.715 17.768,34.715 17.667,34.508 C17.565,34.301 16.444,31.817 16.240,31.714 C16.036,31.610 15.628,31.817 15.730,32.231 C15.934,32.645 17.055,34.818 16.953,34.818 C16.851,34.818 15.832,34.818 15.730,34.715 C15.628,34.611 14.609,32.024 14.405,32.024 C14.201,31.921 13.590,31.921 13.692,32.231 C13.794,32.542 14.915,34.508 14.711,34.508 C14.507,34.508 13.488,34.301 13.284,34.094 C13.080,33.887 12.163,31.507 11.959,31.507 C11.755,31.507 11.348,31.714 11.348,32.024 C11.450,32.335 12.367,33.990 12.061,33.990 C11.857,33.887 10.736,33.783 10.736,33.576 C10.736,33.370 9.717,31.300 9.513,31.197 C9.309,31.093 8.698,31.197 8.902,31.507 C9.105,31.817 9.717,33.266 9.615,33.266 C9.513,33.266 7.067,32.542 5.131,31.507 C3.194,30.472 1.359,28.817 1.563,28.817 C1.767,28.817 4.417,29.024 6.150,28.299 C7.882,27.575 9.717,26.954 9.819,26.747 C9.921,26.540 9.615,26.023 9.513,26.023 C9.411,26.023 7.271,25.299 6.863,23.746 C6.354,22.194 6.761,20.435 6.455,20.228 C6.150,20.021 4.723,19.401 4.009,17.124 C3.296,14.848 4.111,11.744 3.907,11.537 C3.704,11.330 3.500,10.916 3.296,11.019 C2.990,11.123 2.175,9.364 2.175,7.605 C2.175,5.949 2.888,3.673 2.990,3.673 C3.092,3.673 7.780,8.226 10.226,10.295 C12.673,12.364 15.526,14.537 17.157,14.848 C18.788,15.158 19.501,15.158 20.316,13.606 C21.132,11.951 21.947,8.019 23.170,6.156 C24.393,4.294 26.839,2.224 29.999,1.707 C33.158,1.189 35.604,2.121 36.827,3.880 C38.050,5.639 38.152,8.019 38.458,8.226 C38.764,8.432 40.089,8.329 41.821,7.812 C43.452,7.191 44.063,7.087 44.165,7.087 C44.267,7.087 43.758,8.122 42.739,9.053 C41.719,9.985 40.904,10.605 40.904,11.019 C40.904,11.433 41.210,11.951 41.618,11.951 ZM4.315,8.846 C3.806,8.432 4.009,7.501 4.111,6.880 C4.213,6.156 3.194,6.363 2.990,7.087 C2.786,7.812 2.990,8.846 3.602,9.364 C4.213,9.881 4.723,9.881 4.927,9.778 C5.131,9.674 4.723,9.260 4.315,8.846 ZM18.686,16.296 C18.278,16.193 17.361,16.814 16.342,16.193 C15.322,15.676 14.405,14.434 13.896,14.641 C13.590,14.744 13.284,15.158 13.997,15.883 C14.711,16.607 16.138,17.228 17.259,17.228 C18.482,17.228 19.093,16.400 18.686,16.296 ZM25.718,7.087 C25.412,6.984 24.393,7.708 23.884,8.639 C23.374,9.571 22.559,11.330 23.170,11.640 C23.578,11.847 23.782,11.537 24.087,10.605 C24.393,9.571 25.005,8.432 25.310,8.019 C25.718,7.708 26.024,7.191 25.718,7.087 Z" class="cls-1"/>
</svg>
