<?xml version="1.0" encoding="utf-8"?>
<!-- Generator: Adobe Illustrator 19.0.0, SVG Export Plug-In . SVG Version: 6.00 Build 0)  -->
<svg version="1.1" id="Layer_1" xmlns="http://www.w3.org/2000/svg" xmlns:xlink="http://www.w3.org/1999/xlink" x="0px" y="0px"
	 viewBox="0 0 23.9 22" style="enable-background:new 0 0 23.9 22;" xml:space="preserve">
<style type="text/css">
	.st0{fill:#0A0000;}
	.st1{display:none;fill:#FC0600;}
</style>
<path class="st0" d="M19.2,22c-0.4,0-0.7,0-1,0c-3.7-0.3-7.5-0.2-11.4-0.2c-1.7,0-3.5,0.1-5.2,0.1H0V0h22.6l0.1,1.4
	c0.1,1.4,0.2,2.8,0.3,4.2c0.3,3.7,0.6,7.4,0.8,11.2c0.1,1.2,0,2.9-1.2,4C21.7,21.8,20.4,22,19.2,22z M11.6,18.7
	c2.3,0,4.5,0.1,6.8,0.2c1.6,0.1,2.1-0.1,2.2-0.3s0.3-0.5,0.3-1.7c-0.2-3.8-0.5-7.5-0.8-11.2C20,4.9,19.9,3.9,19.8,3H3v15.8
	c1.2,0,2.5,0,3.7-0.1C8.4,18.8,10,18.7,11.6,18.7z"/>
<path class="st1" d="M18,4.9c-4.3,0-9,0-13.6,0c0,4.9,0,9.1,0,13.6c5.5,0,10.8,0,16.3,0c-0.2-3.4-0.4-6.5-0.7-10.7
	c-2,2.1-3.1,3.7-4.6,4.9c-1.5,1.1-3.5,2.7-5,2.4c-2.5-0.5-4-5.2-2.5-9.2c1.2,2.4,2.1,4.1,2.9,5.6C14,8.7,16.2,6.6,18,4.9L18,4.9z"/>
</svg>
