<?xml version="1.0" encoding="utf-8"?>
<!-- Generator: Adobe Illustrator 19.0.0, SVG Export Plug-In . SVG Version: 6.00 Build 0)  -->
<svg version="1.1" id="Layer_1" xmlns="http://www.w3.org/2000/svg" xmlns:xlink="http://www.w3.org/1999/xlink" x="0px" y="0px"
	 viewBox="0 0 68.1 69.2" style="enable-background:new 0 0 68.1 69.2;" xml:space="preserve">
<style type="text/css">
	.st0{fill:#FFFFFF;}
</style>
<path class="st0" d="M62.2,69.2c-11.6,0-27,0-38.7,0c-5.7,0-11.6,0.3-17-1c-2.6-0.6-6.4-4.4-6.4-6.8C-0.1,43.6,0.4,25.8,1,8.1
	C1.2,3.3,3.4-0.1,9.6,0c17.1,0.4,34.2,0,51.2,0.5c2.3,0.1,6.4,3.4,6.4,5.3c0.5,20.5,0.8,36.7,0.8,59.1
	C67.4,67.3,65.2,69.2,62.2,69.2L62.2,69.2z"/>
</svg>
